<svg id="Layer_1" data-name="Layer 1" xmlns="http://www.w3.org/2000/svg" viewBox="0 0 542.78 327.62"><defs><style>.cls-1{fill:#010101;}</style></defs><title>combo_stacked</title><rect class="cls-1" y="59.61" width="20.79" height="32.72"/><polygon class="cls-1" points="0 2.51 0 42.93 20.79 42.93 20.79 19.19 67.88 19.19 67.88 2.51 0 2.51"/><path class="cls-1" d="M435.14,270.9a34.17,34.17,0,0,1-.21-3.83,30,30,0,0,1,3.65-14.89A26.28,26.28,0,0,1,448.66,242a30,30,0,0,1,28.74,0,26.26,26.26,0,0,1,10.07,10.2,30,30,0,0,1,3.66,14.89,34.17,34.17,0,0,1-.21,3.83H512c.09-1.26.15-2.53.15-3.83a44.91,44.91,0,0,0-24-40.42,55.61,55.61,0,0,0-50.37,0,44.87,44.87,0,0,0-17.58,16.61,45.44,45.44,0,0,0-6.35,23.81c0,1.3.06,2.57.15,3.83Z" transform="translate(-338.43 -219.65)"/><path class="cls-1" d="M572,295.81a30,30,0,0,1-14.89-3.66,26.05,26.05,0,0,1-10.2-10.2,28.84,28.84,0,0,1-3.45-11.05h-21.1A44.46,44.46,0,0,0,546,307.55a51.58,51.58,0,0,0,24.83,6A52.82,52.82,0,0,0,592,309.41a41.69,41.69,0,0,0,15.91-11.93l-13.35-12.32Q585.45,295.81,572,295.81Z" transform="translate(-338.43 -219.65)"/><rect class="cls-1" x="379.95" y="2.51" width="20.79" height="48.25"/><rect class="cls-1" x="421.54" y="75.39" width="24.23" height="16.94"/><path class="cls-1" d="M397.34,266.49a4.41,4.41,0,0,0-4.15,2.93H352.71a4.42,4.42,0,1,0,0,3h40.48a4.42,4.42,0,1,0,4.15-5.93Z" transform="translate(-338.43 -219.65)"/><polygon class="cls-1" points="306.48 55.6 319.53 24.11 319.02 22.91 309.64 3.05 269.85 92.33 291.15 92.33 299.11 73.08 299.11 73.08 306.48 55.6 306.48 55.6"/><path class="cls-1" d="M507.63,279.75a4.43,4.43,0,0,0-8.85,0,4.35,4.35,0,0,0,1.16,3c-3,7.37-12.4,24.07-36.59,24.07h-.58c-24.8-.27-33.9-16.65-36.74-24a4.42,4.42,0,1,0-3.77,1.18c3.19,8.11,13.42,26.53,40.47,26.82h.63c26.51,0,36.95-18.41,40.3-26.65A4.41,4.41,0,0,0,507.63,279.75Z" transform="translate(-338.43 -219.65)"/><path class="cls-1" d="M699.22,307.56h-.09l-37-80.53a4.43,4.43,0,1,0-3.75,1.42l25,54.39H654.5a4.42,4.42,0,1,0,0,4h30.7l10.39,22.61a4.42,4.42,0,1,0,3.63-1.89Z" transform="translate(-338.43 -219.65)"/><path class="cls-1" d="M751.19,299.18a4.41,4.41,0,0,0-3.93,2.42H731.35V283.16a4.42,4.42,0,1,0-4,0V305.6h19.91a4.42,4.42,0,1,0,3.93-6.42Z" transform="translate(-338.43 -219.65)"/><path class="cls-1" d="M602.35,229.61a4.68,4.68,0,0,0-3.18.07,37.42,37.42,0,0,0-9.71-5.34,48.22,48.22,0,0,0-16.94-3,46.84,46.84,0,0,0-23.16,5.77,42.26,42.26,0,0,0-16.25,15.94A43.12,43.12,0,0,0,528,257h.45a4.75,4.75,0,1,0,2.83.07c-.1,0-.19,0-.29-.07h1.4a39.48,39.48,0,0,1,19.3-26.36,41.7,41.7,0,0,1,20.95-5.34q13.88,0,23.73,7.18s0,.08,0,.12a4.75,4.75,0,1,0,6-3Z" transform="translate(-338.43 -219.65)"/><path class="cls-1" d="M405.62,353.37a30.86,30.86,0,0,0-13.54-11.3q-8.79-4-20.72-4V355h0c6.24,0,9.83,1.35,13.08,4.05s4.88,6.56,4.88,11.61-1.63,8.79-4.88,11.48-8,4.05-14.24,4.05H353.26v16.93h18.1q11.92,0,20.72-3.91A30.26,30.26,0,0,0,405.62,388a33.9,33.9,0,0,0,0-34.58Z" transform="translate(-338.43 -219.65)"/><polygon class="cls-1" points="300.21 118.45 300.21 172.98 303.67 208.27 320.74 208.27 320.74 118.45 300.21 118.45"/><polygon class="cls-1" points="238.36 118.45 238.36 208.27 258.89 208.27 258.89 153.74 255.55 118.45 238.36 118.45"/><polygon class="cls-1" points="331.9 118.45 331.9 135.39 359.45 135.39 359.45 135.38 384.6 135.38 384.6 135.39 410.18 135.39 410.18 118.45 331.9 118.45"/><path class="cls-1" d="M453.94,405.37a33.87,33.87,0,0,1-2.86-2.56,30,30,0,0,1-7.94-13.11,26.27,26.27,0,0,1-.09-14.34A30.06,30.06,0,0,1,463.37,355a26.27,26.27,0,0,1,14.34.09,30,30,0,0,1,13.11,7.94,33.87,33.87,0,0,1,2.56,2.86L508.3,351c-.82-1-1.68-1.9-2.6-2.82a44.94,44.94,0,0,0-45.55-11.62,55.62,55.62,0,0,0-35.61,35.62,44.72,44.72,0,0,0-.68,24.18,45.41,45.41,0,0,0,12.34,21.32c.92.92,1.86,1.78,2.82,2.6Z" transform="translate(-338.43 -219.65)"/><path class="cls-1" d="M789.29,353.29c.74,0,1.51-.05,2.3-.05q12.45,0,24.9,7.06l6.41-15.79a49.84,49.84,0,0,0-14.37-5.9,69,69,0,0,0-16.81-2.05c-.82,0-1.63,0-2.43,0Z" transform="translate(-338.43 -219.65)"/><path class="cls-1" d="M822.07,387.37a27.94,27.94,0,0,0-11.23-7.7A146.54,146.54,0,0,0,794,374.8c-1.69-.38-3.27-.75-4.74-1.13v18.58q4.8,1.17,7.88,2.18a18.93,18.93,0,0,1,6.42,3.4,6.68,6.68,0,0,1,2.5,5.32q0,4.37-4.23,7t-13.09,2.63a51.59,51.59,0,0,1-15.91-2.57,47.87,47.87,0,0,1-13.73-6.8l-7.06,15.66q6,4.6,16,7.5a73.27,73.27,0,0,0,20.59,2.89q12.32,0,20.92-3.72t12.89-10.08a24.47,24.47,0,0,0,4.3-14.05Q826.75,392.64,822.07,387.37Z" transform="translate(-338.43 -219.65)"/><rect class="cls-1" x="196.27" y="148.18" width="20.79" height="60.09"/><path class="cls-1" d="M505.2,360.37a4.41,4.41,0,0,0,2.95,7.54c3.19,7.29,8.4,25.58-8.88,42.87l-.42.42c-17.73,17.34-35.75,12.19-43,9a4.43,4.43,0,1,0-1.84,3.5c8,3.47,28.25,9.26,47.58-9.65.16-.15.3-.3.45-.45,18.75-18.74,13.12-39.14,9.65-47.34a4.41,4.41,0,0,0-6.54-5.9Z" transform="translate(-338.43 -219.65)"/><path class="cls-1" d="M362.62,342.63a4.4,4.4,0,0,0-3.92,2.42H340.85V424a4.43,4.43,0,1,0,4,0V349.05H358.7a4.42,4.42,0,1,0,3.92-6.42Z" transform="translate(-338.43 -219.65)"/><path class="cls-1" d="M631.12,393.32a4.14,4.14,0,0,0-.87.09l-21.21-27a4.35,4.35,0,0,0,.65-2.26,4.43,4.43,0,1,0-4.43,4.42c.12,0,.24,0,.36,0l21.49,27.31a4.42,4.42,0,1,0,4-2.57Z" transform="translate(-338.43 -219.65)"/><path class="cls-1" d="M711.48,424v-56.2a4.42,4.42,0,1,0-4,0V424a4.42,4.42,0,1,0,4,0Z" transform="translate(-338.43 -219.65)"/><path class="cls-1" d="M545.1,338.2a4.43,4.43,0,1,0,4.42,4.43A4.43,4.43,0,0,0,545.1,338.2Z" transform="translate(-338.43 -219.65)"/><path class="cls-1" d="M771.54,350.07a20,20,0,0,1,5.08-2.94,4.42,4.42,0,1,0,0-4.11,28,28,0,0,0-2.62,1,22.41,22.41,0,0,0-10,8.22,20.64,20.64,0,0,0-3.26,11.29q0,7.79,4,12.43a24.7,24.7,0,0,0,9.79,6.9c.5.2,1,.39,1.57.59a4.41,4.41,0,1,0,1.31-3.79l-.18-.06a23.3,23.3,0,0,1-8.79-5.84Q765,370,765,363.56A16.63,16.63,0,0,1,771.54,350.07Z" transform="translate(-338.43 -219.65)"/><rect class="cls-1" y="290.47" width="20.79" height="32.72"/><polygon class="cls-1" points="0 233.37 0 273.79 20.79 273.79 20.79 250.05 67.88 250.05 67.88 233.37 0 233.37"/><path class="cls-1" d="M435.14,501.76a34.17,34.17,0,0,1-.21-3.83A30,30,0,0,1,438.58,483a26.28,26.28,0,0,1,10.08-10.2,30.11,30.11,0,0,1,28.74,0A26.26,26.26,0,0,1,487.47,483a30,30,0,0,1,3.66,14.89,34.17,34.17,0,0,1-.21,3.83H512c.09-1.26.15-2.53.15-3.83a44.94,44.94,0,0,0-24-40.42,55.61,55.61,0,0,0-50.37,0,44.82,44.82,0,0,0-17.58,16.62,45.38,45.38,0,0,0-6.35,23.8c0,1.3.06,2.57.15,3.83Z" transform="translate(-338.43 -219.65)"/><path class="cls-1" d="M572,526.67A30,30,0,0,1,557.08,523a25.92,25.92,0,0,1-10.2-10.2,28.79,28.79,0,0,1-3.45-11h-21.1A44.46,44.46,0,0,0,546,538.41a51.58,51.58,0,0,0,24.83,6A52.82,52.82,0,0,0,592,540.27a41.59,41.59,0,0,0,15.91-11.93L594.55,516Q585.45,526.67,572,526.67Z" transform="translate(-338.43 -219.65)"/><polygon class="cls-1" points="313.48 286.46 326.53 254.97 326.02 253.77 316.64 233.91 276.85 323.19 298.15 323.19 306.11 303.94 306.11 303.94 313.48 286.46 313.48 286.46"/><path class="cls-1" d="M770.05,451.58v49q0,12.31-5.08,18.09c-3.31,3.77-8.09,5.68-14.31,5.77V542q18.66-.15,29.11-10.53,10.59-10.54,10.6-30.1V451.58Z" transform="translate(-338.43 -219.65)"/><polygon class="cls-1" points="542.78 232.23 520.34 232.23 500.07 261.34 511.49 275.58 542.78 232.23"/><polygon class="cls-1" points="454.16 322 478.01 322 499.3 290.84 487.38 276.35 454.16 322"/><path class="cls-1" d="M397.34,497.35a4.42,4.42,0,0,0-4.15,2.93H352.71a4.42,4.42,0,1,0,0,3h40.48a4.42,4.42,0,1,0,4.15-5.93Z" transform="translate(-338.43 -219.65)"/><path class="cls-1" d="M503.2,506.19a4.42,4.42,0,0,0-4.42,4.42,4.35,4.35,0,0,0,1.16,3c-3,7.37-12.4,24.07-36.59,24.07h-.58c-24.8-.27-33.9-16.66-36.74-24a4.43,4.43,0,1,0-3.77,1.17c3.19,8.11,13.42,26.53,40.47,26.83h.63c26.51,0,36.95-18.4,40.3-26.65a4.41,4.41,0,0,0-.46-8.8Z" transform="translate(-338.43 -219.65)"/><path class="cls-1" d="M706.22,538.42h-.09l-37-80.54a4.43,4.43,0,1,0-3.75,1.42l25,54.39H661.5a4.42,4.42,0,1,0,0,4h30.7l10.39,22.61a4.42,4.42,0,1,0,3.63-1.89Z" transform="translate(-338.43 -219.65)"/><path class="cls-1" d="M602.35,460.47a4.74,4.74,0,0,0-3.18.07,37.42,37.42,0,0,0-9.71-5.34,48.22,48.22,0,0,0-16.94-2.95A46.74,46.74,0,0,0,549.36,458,42.19,42.19,0,0,0,533.11,474,43.06,43.06,0,0,0,528,487.84h.45a4.75,4.75,0,1,0,2.83.07l-.29-.07h1.4a39.48,39.48,0,0,1,19.3-26.36,41.7,41.7,0,0,1,20.95-5.34q13.88,0,23.73,7.19s0,.07,0,.11a4.75,4.75,0,1,0,6-3Z" transform="translate(-338.43 -219.65)"/><path class="cls-1" d="M872.24,537.23a4.15,4.15,0,0,0-.79.08l-31.6-42.06h0L837.42,492h0l-.91-1.22h0l-24.28-32.47a4.34,4.34,0,0,0,.55-2.09,4.43,4.43,0,1,0-4.43,4.42c.15,0,.29,0,.43,0l25.81,34.62,3.47,4.12,0,.06,30.21,40.4a4.42,4.42,0,1,0,4-2.6Z" transform="translate(-338.43 -219.65)"/><path class="cls-1" d="M741.86,533.9a4.41,4.41,0,0,0-3.19,1.37,25.19,25.19,0,0,1-11.47-7q-7.92-8.62-7.92-25.76V460.25a4.41,4.41,0,1,0-4.35-.34v42.7q0,18.79,9.27,28.51a29.82,29.82,0,0,0,13.31,8,4.42,4.42,0,1,0,4.35-5.21Z" transform="translate(-338.43 -219.65)"/></svg>