<svg id="Layer_1" data-name="Layer 1" xmlns="http://www.w3.org/2000/svg" viewBox="0 0 974.76 97.8"><defs><style>.cls-1{fill:#010101;}</style></defs><title>english_inline</title><rect class="cls-1" y="60.66" width="20.79" height="32.72"/><polygon class="cls-1" points="0 3.56 0 43.98 20.79 43.98 20.79 20.24 67.88 20.24 67.88 3.56 0 3.56"/><path class="cls-1" d="M218.59,387.43a36.91,36.91,0,0,1-.21-3.84A29.94,29.94,0,0,1,222,368.71a26.19,26.19,0,0,1,10.07-10.2,30,30,0,0,1,28.74,0,26.22,26.22,0,0,1,10.08,10.2,29.94,29.94,0,0,1,3.65,14.88,37,37,0,0,1-.2,3.84h21.09c.1-1.26.16-2.54.16-3.84a45,45,0,0,0-24-40.42,55.59,55.59,0,0,0-50.36,0,44.69,44.69,0,0,0-17.58,16.62,45.31,45.31,0,0,0-6.35,23.8c0,1.3.06,2.58.15,3.84Z" transform="translate(-121.89 -335.13)"/><path class="cls-1" d="M355.42,412.34a29.94,29.94,0,0,1-14.88-3.66,26.05,26.05,0,0,1-10.2-10.2,28.9,28.9,0,0,1-3.45-11.05h-21.1a44.5,44.5,0,0,0,23.65,36.65,51.66,51.66,0,0,0,24.83,6,52.94,52.94,0,0,0,21.17-4.1A41.64,41.64,0,0,0,391.35,414L378,401.69Q368.89,412.34,355.42,412.34Z" transform="translate(-121.89 -335.13)"/><rect class="cls-1" x="379.95" y="3.56" width="20.79" height="48.25"/><rect class="cls-1" x="421.54" y="76.44" width="24.23" height="16.94"/><path class="cls-1" d="M675.51,351.93A30.91,30.91,0,0,0,662,340.64q-8.79-4-20.72-4V353.6h0c6.24,0,9.83,1.35,13.08,4s4.88,6.56,4.88,11.61-1.63,8.79-4.88,11.48-8,4-14.24,4H623.15v16.94h18.1q11.93,0,20.72-3.91a30.26,30.26,0,0,0,13.54-11.29,33.92,33.92,0,0,0,0-34.59Z" transform="translate(-121.89 -335.13)"/><polygon class="cls-1" points="786.64 1.54 786.64 56.08 790.11 91.36 807.17 91.36 807.17 1.54 786.64 1.54"/><polygon class="cls-1" points="724.79 1.54 724.79 91.36 745.32 91.36 745.32 36.83 741.99 1.54 724.79 1.54"/><polygon class="cls-1" points="818.34 1.54 818.34 18.48 845.88 18.48 845.88 18.47 871.04 18.47 871.04 18.48 896.61 18.48 896.61 1.54 818.34 1.54"/><path class="cls-1" d="M180.79,383a4.4,4.4,0,0,0-4.14,2.92H136.16a4.43,4.43,0,1,0,0,3h40.49a4.41,4.41,0,1,0,4.14-5.92Z" transform="translate(-121.89 -335.13)"/><polygon class="cls-1" points="306.48 56.65 319.53 25.15 319.02 23.96 309.64 4.1 269.85 93.38 291.15 93.38 299.11 74.13 299.11 74.13 306.48 56.65 306.48 56.65"/><path class="cls-1" d="M291.08,396.27a4.43,4.43,0,1,0-7.69,3c-3,7.36-12.39,24.06-36.59,24.06h-.58c-24.79-.27-33.9-16.65-36.73-24a4.44,4.44,0,1,0-3.78,1.17c3.2,8.11,13.42,26.54,40.47,26.83h.63c26.51,0,37-18.4,40.3-26.65A4.41,4.41,0,0,0,291.08,396.27Z" transform="translate(-121.89 -335.13)"/><path class="cls-1" d="M712,385.74a34.17,34.17,0,0,1-.21-3.83A30,30,0,0,1,715.43,367a26.26,26.26,0,0,1,10.07-10.2,30.11,30.11,0,0,1,28.74,0A26.28,26.28,0,0,1,764.32,367,30,30,0,0,1,768,381.91a34.17,34.17,0,0,1-.21,3.83h21.1c.1-1.26.16-2.53.16-3.83a45,45,0,0,0-24-40.42,55.59,55.59,0,0,0-50.36,0,44.69,44.69,0,0,0-17.58,16.62,45.29,45.29,0,0,0-6.35,23.8c0,1.3.06,2.57.15,3.83Z" transform="translate(-121.89 -335.13)"/><circle class="cls-1" cx="577.92" cy="59.31" r="4.42"/><circle class="cls-1" cx="658.16" cy="59.47" r="4.42"/><path class="cls-1" d="M740.2,425.62h-.63c-34.52-.38-41.65-30.29-41.71-30.59l3.9-.88c.25,1.11,6.56,27.12,37.85,27.47h.6c30.77,0,37.47-26.36,37.74-27.49l3.89.92C781.77,395.36,774.2,425.62,740.2,425.62Z" transform="translate(-121.89 -335.13)"/><path class="cls-1" d="M482.67,424.08h-.09l-37-80.54a4.37,4.37,0,0,0,1.16-2.95,4.43,4.43,0,1,0-4.91,4.37l25,54.4H438a4.42,4.42,0,1,0,0,4h30.69L479.05,426a4.41,4.41,0,1,0,3.62-1.9Z" transform="translate(-121.89 -335.13)"/><path class="cls-1" d="M534.64,415.71a4.4,4.4,0,0,0-3.92,2.42H514.8V399.69a4.42,4.42,0,1,0-4,0v22.44h19.92a4.42,4.42,0,1,0,3.92-6.42Z" transform="translate(-121.89 -335.13)"/><path class="cls-1" d="M632.51,341.2a4.4,4.4,0,0,0-3.92,2.42H610.75v78.94a4.42,4.42,0,1,0,4,0V347.62h13.84a4.42,4.42,0,1,0,3.92-6.42Z" transform="translate(-121.89 -335.13)"/><path class="cls-1" d="M901,391.89a4.14,4.14,0,0,0-.87.09l-21.21-27a4.36,4.36,0,0,0,.65-2.27,4.43,4.43,0,1,0-4.43,4.43c.13,0,.24,0,.36,0L897,394.46a4.42,4.42,0,1,0,4-2.57Z" transform="translate(-121.89 -335.13)"/><circle class="cls-1" cx="857.47" cy="27.31" r="4.42"/><circle class="cls-1" cx="857.48" cy="91.36" r="4.42"/><rect class="cls-1" x="855.48" y="27.31" width="4" height="63.63"/><path class="cls-1" d="M1053.12,343.46" transform="translate(-121.89 -335.13)"/><path class="cls-1" d="M1059.18,351.86c.74,0,1.51-.05,2.3-.05q12.45,0,24.9,7.05l6.41-15.78a49.57,49.57,0,0,0-14.37-5.9,69,69,0,0,0-16.81-2.05c-.82,0-1.63,0-2.43,0Z" transform="translate(-121.89 -335.13)"/><path class="cls-1" d="M1092,385.94a27.94,27.94,0,0,0-11.23-7.7,148.36,148.36,0,0,0-16.81-4.88c-1.69-.37-3.27-.74-4.74-1.12v18.58c3.2.78,5.83,1.5,7.89,2.18a19,19,0,0,1,6.41,3.4,6.68,6.68,0,0,1,2.5,5.32q0,4.36-4.23,7t-13.09,2.63a51.59,51.59,0,0,1-15.91-2.57A47.87,47.87,0,0,1,1029,402L1022,417.63q6,4.62,16,7.51a73.27,73.27,0,0,0,20.59,2.89q12.32,0,20.92-3.72t12.89-10.08a24.47,24.47,0,0,0,4.3-14.05Q1096.64,391.21,1092,385.94Z" transform="translate(-121.89 -335.13)"/><circle class="cls-1" cx="693.1" cy="6.07" r="4.42"/><path class="cls-1" d="M385.8,346.14a4.65,4.65,0,0,0-3.17.06,37.4,37.4,0,0,0-9.71-5.33A48,48,0,0,0,356,337.92a46.7,46.7,0,0,0-23.15,5.77,42.19,42.19,0,0,0-16.25,15.94,42.8,42.8,0,0,0-5.11,13.88h.45a4.74,4.74,0,1,0,2.83.06l-.29-.06h1.39a39.47,39.47,0,0,1,19.3-26.37,41.83,41.83,0,0,1,21-5.33q13.88,0,23.73,7.18a.61.61,0,0,0-.05.12,4.75,4.75,0,1,0,6-3Z" transform="translate(-121.89 -335.13)"/><rect class="cls-1" x="682.71" y="31.27" width="20.79" height="60.09"/><path class="cls-1" d="M1050.43,377a4.4,4.4,0,0,0-3,1.24l-.18-.06a23.42,23.42,0,0,1-8.79-5.84q-3.57-3.83-3.57-10.23a16.63,16.63,0,0,1,6.59-13.49,20,20,0,0,1,5.08-2.94,4.42,4.42,0,1,0,0-4.11,28,28,0,0,0-2.62,1,22.41,22.41,0,0,0-10,8.22,20.61,20.61,0,0,0-3.26,11.29q0,7.78,4,12.43a24.7,24.7,0,0,0,9.79,6.9c.5.2,1,.39,1.57.59a4.42,4.42,0,1,0,4.36-5Z" transform="translate(-121.89 -335.13)"/></svg>