<svg id="Layer_1" data-name="Layer 1" xmlns="http://www.w3.org/2000/svg" viewBox="0 0 488.32 216.87"><defs><style>.cls-1{fill:#010101;}</style></defs><title>english_stacked</title><rect class="cls-1" y="59.61" width="20.79" height="32.72"/><polygon class="cls-1" points="0 2.51 0 42.93 20.79 42.93 20.79 19.19 67.88 19.19 67.88 2.51 0 2.51"/><path class="cls-1" d="M462.35,325.43a34.17,34.17,0,0,1-.21-3.83,30,30,0,0,1,3.65-14.88,26.24,26.24,0,0,1,10.08-10.21,30.11,30.11,0,0,1,28.74,0,26.15,26.15,0,0,1,10.07,10.21,29.94,29.94,0,0,1,3.66,14.88,34.17,34.17,0,0,1-.21,3.83h21.1c.09-1.26.15-2.53.15-3.83a44.94,44.94,0,0,0-24-40.42,55.61,55.61,0,0,0-50.37,0,44.73,44.73,0,0,0-17.57,16.62,45.29,45.29,0,0,0-6.36,23.8c0,1.3.06,2.57.16,3.83Z" transform="translate(-365.64 -274.18)"/><path class="cls-1" d="M599.18,350.34a30,30,0,0,1-14.88-3.65,26,26,0,0,1-10.21-10.2,28.88,28.88,0,0,1-3.44-11.06H549.54a44.45,44.45,0,0,0,23.66,36.65,51.53,51.53,0,0,0,24.83,6A52.94,52.94,0,0,0,619.2,364,41.64,41.64,0,0,0,635.11,352l-13.35-12.32Q612.66,350.34,599.18,350.34Z" transform="translate(-365.64 -274.18)"/><rect class="cls-1" x="379.95" y="2.51" width="20.79" height="48.25"/><rect class="cls-1" x="421.54" y="75.39" width="24.23" height="16.94"/><path class="cls-1" d="M424.55,321A4.41,4.41,0,0,0,420.4,324H379.92a4.42,4.42,0,1,0,0,3H420.4a4.42,4.42,0,1,0,4.15-5.92Z" transform="translate(-365.64 -274.18)"/><polygon class="cls-1" points="306.48 55.6 319.53 24.11 319.02 22.91 309.64 3.05 269.85 92.33 291.15 92.33 299.11 73.08 299.11 73.08 306.48 55.6 306.48 55.6"/><path class="cls-1" d="M534.84,334.28a4.43,4.43,0,1,0-7.69,3c-3,7.37-12.4,24.07-36.59,24.07H490c-24.8-.27-33.9-16.66-36.74-24a4.43,4.43,0,1,0-3.77,1.17c3.19,8.11,13.42,26.53,40.47,26.83h.63c26.51,0,36.95-18.4,40.3-26.65A4.41,4.41,0,0,0,534.84,334.28Z" transform="translate(-365.64 -274.18)"/><path class="cls-1" d="M726.43,362.09h-.09l-37-80.54a4.37,4.37,0,0,0,1.15-2.95,4.43,4.43,0,1,0-4.9,4.37l25,54.39H681.71a4.43,4.43,0,1,0,0,4h30.7L722.8,364a4.37,4.37,0,0,0-.8,2.52,4.43,4.43,0,1,0,4.43-4.42Z" transform="translate(-365.64 -274.18)"/><path class="cls-1" d="M778.4,353.71a4.43,4.43,0,0,0-3.93,2.43H758.56V337.7a4.42,4.42,0,1,0-4,0v22.44h19.91a4.42,4.42,0,1,0,3.93-6.43Z" transform="translate(-365.64 -274.18)"/><path class="cls-1" d="M629.56,284.14a4.74,4.74,0,0,0-3.18.07,37.42,37.42,0,0,0-9.71-5.34,48.22,48.22,0,0,0-16.94-2.94,46.7,46.7,0,0,0-23.15,5.77,42.14,42.14,0,0,0-16.26,15.94,42.81,42.81,0,0,0-5.1,13.87h.44a4.75,4.75,0,1,0,2.83.07l-.28-.07h1.39a39.48,39.48,0,0,1,19.3-26.36,41.7,41.7,0,0,1,21-5.33q13.86,0,23.73,7.18a1.34,1.34,0,0,0-.06.12,4.75,4.75,0,1,0,6-3Z" transform="translate(-365.64 -274.18)"/><path class="cls-1" d="M432.83,412.08a30.78,30.78,0,0,0-13.54-11.29q-8.79-4-20.72-4v16.94h0c6.24,0,9.83,1.34,13.08,4s4.88,6.57,4.88,11.61-1.62,8.79-4.88,11.49-8,4-14.24,4H380.47v16.94h18.1q11.93,0,20.72-3.92a30.26,30.26,0,0,0,13.54-11.29,33.84,33.84,0,0,0,0-34.58Z" transform="translate(-365.64 -274.18)"/><polygon class="cls-1" points="300.21 123.63 300.21 178.16 303.67 213.45 320.74 213.45 320.74 123.63 300.21 123.63"/><polygon class="cls-1" points="238.36 123.63 238.36 213.45 258.89 213.45 258.89 158.91 255.55 123.63 238.36 123.63"/><polygon class="cls-1" points="331.9 122.63 331.9 139.56 359.45 139.56 359.45 139.56 384.6 139.56 384.6 139.56 410.18 139.56 410.18 122.63 331.9 122.63"/><path class="cls-1" d="M480.8,464.23a33.87,33.87,0,0,1-2.86-2.56A30,30,0,0,1,470,448.56a26.27,26.27,0,0,1-.09-14.34,30,30,0,0,1,20.32-20.32,26.27,26.27,0,0,1,14.34.09,30,30,0,0,1,13.11,7.94,32.38,32.38,0,0,1,2.56,2.86l14.92-14.92c-.82-1-1.68-1.91-2.6-2.82A44.94,44.94,0,0,0,487,395.43a55.56,55.56,0,0,0-35.61,35.62,44.72,44.72,0,0,0-.68,24.18,45.33,45.33,0,0,0,12.34,21.32c.92.92,1.86,1.78,2.82,2.6Z" transform="translate(-365.64 -274.18)"/><path class="cls-1" d="M538.31,419.23a4.42,4.42,0,1,0-2.91,7.53c3.12,6.75,9.31,25.71-8.57,43.59l-.42.41c-18.37,18-37.06,11.8-43.69,8.68a4.42,4.42,0,1,0-2.16,3.35c7.11,3.34,28.38,10.66,48.65-9.17l.45-.44c19.58-19.59,12.56-41,9.2-48.37A4.42,4.42,0,0,0,538.31,419.23Z" transform="translate(-365.64 -274.18)"/><path class="cls-1" d="M389.83,401.34a4.4,4.4,0,0,0-3.92,2.42H368.07v78.95a4.42,4.42,0,1,0,4,0V407.76h13.84a4.42,4.42,0,1,0,3.92-6.42Z" transform="translate(-365.64 -274.18)"/><path class="cls-1" d="M658.33,453a4.14,4.14,0,0,0-.87.09l-21.21-26.94a4.41,4.41,0,1,0-3.78,2.15c.13,0,.24,0,.36,0l21.49,27.3a4.42,4.42,0,1,0,4-2.57Z" transform="translate(-365.64 -274.18)"/><path class="cls-1" d="M738.69,482.71V426.5a4.42,4.42,0,1,0-4,0v56.21a4.42,4.42,0,1,0,4,0Z" transform="translate(-365.64 -274.18)"/><path class="cls-1" d="M810.44,403.61" transform="translate(-365.64 -274.18)"/><path class="cls-1" d="M816.51,412c.74,0,1.5-.06,2.3-.06q12.44,0,24.89,7.06l6.41-15.79a49.73,49.73,0,0,0-14.37-5.9,69,69,0,0,0-16.81-2.05c-.82,0-1.62,0-2.42.05Z" transform="translate(-365.64 -274.18)"/><path class="cls-1" d="M849.28,446.08a27.9,27.9,0,0,0-11.23-7.7,145.94,145.94,0,0,0-16.81-4.87c-1.69-.38-3.27-.75-4.73-1.13V451q4.79,1.17,7.88,2.18a19.05,19.05,0,0,1,6.41,3.4,6.68,6.68,0,0,1,2.5,5.33q0,4.36-4.23,7T816,471.49a51.3,51.3,0,0,1-15.91-2.57,47.74,47.74,0,0,1-13.73-6.8l-7.06,15.66q6,4.62,16,7.5a73.27,73.27,0,0,0,20.59,2.89q12.33,0,20.92-3.72t12.89-10.07a24.51,24.51,0,0,0,4.3-14.05Q854,451.35,849.28,446.08Z" transform="translate(-365.64 -274.18)"/><circle class="cls-1" cx="206.67" cy="128.16" r="4.42"/><rect class="cls-1" x="196.27" y="153.36" width="20.79" height="60.09"/><path class="cls-1" d="M807.76,437.17a4.37,4.37,0,0,0-3.06,1.24l-.18-.07a23.18,23.18,0,0,1-8.78-5.84q-3.59-3.83-3.58-10.22a16.6,16.6,0,0,1,6.59-13.49,20,20,0,0,1,5.08-3,4.43,4.43,0,1,0,0-4.1,25.46,25.46,0,0,0-2.62,1,22.46,22.46,0,0,0-10,8.22,20.65,20.65,0,0,0-3.26,11.3q0,7.79,4,12.42a24.5,24.5,0,0,0,9.79,6.9c.5.2,1,.4,1.57.59a4.42,4.42,0,1,0,4.37-5Z" transform="translate(-365.64 -274.18)"/></svg>