<?xml version="1.0" encoding="utf-8"?>
<!-- Generator: Adobe Illustrator 23.0.1, SVG Export Plug-In . SVG Version: 6.00 Build 0)  -->
<svg version="1.1" id="Layer_1" xmlns="http://www.w3.org/2000/svg" xmlns:xlink="http://www.w3.org/1999/xlink" x="0px" y="0px"
	 viewBox="0 0 524.6 211.3" style="enable-background:new 0 0 524.6 211.3;" xml:space="preserve">
<g>
	<rect y="66.3" width="22.2" height="30.8"/>
	<polygon points="22.1,17.9 72.7,17.9 72.7,0 0,0 0,38.8 22.1,38.8 	"/>
</g>
<rect x="214.7" y="178.4" width="22.2" height="30.8"/>
<g>
	<polygon points="278.3,112.9 259.9,112.9 259.9,209.4 281.9,209.4 281.9,150.8 281.9,150.8 	"/>
	<polygon points="325.9,113.1 348.4,113.1 348.4,209.6 329.7,209.6 328.4,208.1 326.2,172.2 	"/>
</g>
<g>
	<path d="M223.9,32.3c2.6-4.7,6.3-8.3,10.9-10.9c4.7-2.6,10-3.9,16-3.9c9.6,0,17.7,3.8,24.2,11.3l14.3-13.2
		c-4.6-5.5-10.2-9.7-17-12.7C265.6,0,258-1.5,249.7-1.5c-9.9,0-18.8,2.1-26.8,6.4c-7.9,4.3-14.2,10.2-18.7,17.7
		c-4.2,7.1-6.5,15-6.8,23.8H220C220.3,41.3,221.6,36.5,223.9,32.3z"/>
	<path d="M275,67.7c-3.1,3.6-6.6,6.4-10.4,8.3c-4.2,2.1-8.8,3.1-13.8,3.1c-3.3,0-6.4-0.4-9.3-1.2L237.1,98c3.9,0.8,8.1,0.1,12.4,0.1
		c2,0,3.9-0.1,5.8-0.3c6.1-0.5,11.7-1.9,16.9-4.2c6.8-2.9,12.5-7.2,17.1-12.8L275,67.7z"/>
</g>
<polygon points="444.4,130.5 444.4,112.4 360.5,112.4 360.5,130.5 391.3,130.5 391.3,157.6 413.6,157.6 413.6,130.5 "/>
<path d="M179.6,23.1c-4.6-7.5-10.8-13.5-18.8-17.8s-16.9-6.4-26.9-6.4s-19,2.2-27,6.4c-8,4.3-14.3,10.2-18.8,17.8
	c-4.2,7-6.4,14.8-6.7,23.4h22.5c0.3-5.1,1.6-9.7,3.9-13.8c2.6-4.7,6.2-8.3,10.8-10.9c4.6-2.6,9.7-3.9,15.4-3.9
	c5.7,0,10.8,1.3,15.4,3.9s8.2,6.2,10.8,10.9c2.6,4.7,3.9,10,3.9,15.9s-1.3,11.3-3.9,15.9c-2.6,4.7-6.2,8.3-10.8,10.9
	c-3.4,1.9-7.1,3.1-11.1,3.6l-4.4,19.2h0.1c10,0,18.9-2.1,26.9-6.4s14.2-10.2,18.8-17.8c4.6-7.5,6.9-16,6.9-25.5
	C186.5,39.1,184.2,30.6,179.6,23.1z"/>
<path d="M190.7,136.2c-4.6-7.5-10.8-13.5-18.8-17.8S155,112,145,112s-19,2.2-27,6.4c-8,4.3-14.3,10.2-18.8,17.8
	c-4.2,7-6.4,14.8-6.7,23.4H115c0.3-5.1,1.6-9.7,3.9-13.8c2.6-4.7,6.2-8.3,10.8-10.9s9.7-3.9,15.4-3.9s10.8,1.3,15.4,3.9
	c4.6,2.6,8.2,6.2,10.8,10.9c2.6,4.7,3.9,10,3.9,15.9s-1.3,11.3-3.9,15.9c-2.6,4.7-6.2,8.3-10.8,10.9c-3.4,1.9-7.1,3.1-11.1,3.6
	l-4.4,19.2h0.1c10,0,18.9-2.1,26.9-6.4s14.2-10.2,18.8-17.8c4.6-7.5,6.9-16,6.9-25.5C197.5,152.3,195.3,143.8,190.7,136.2z"/>
<polygon points="332.7,59.1 328.5,59.1 343,23.9 332.9,0.2 289.9,96.7 312.8,96.7 321.3,76 332.7,76 "/>
<g>
	<rect x="454.9" y="79.2" width="24.1" height="18.2"/>
	<rect x="408.2" y="0.8" width="22.3" height="38.8"/>
</g>
<path d="M75.9,129.5c-3.4-5.2-8.3-9.3-14.5-12.1c-6.3-2.8-13.7-4.3-22.3-4.3H19.7v18.2h18.2c6.7,0,11.8,1.4,15.3,4.3
	s5.2,7.1,5.2,12.5c0,5.3-1.7,9.4-5.2,12.3s-8.6,4.3-15.3,4.3H19.7v18.2h19.4c8.5,0,16-1.4,22.3-4.2c6.3-2.8,11.1-6.8,14.5-12.1
	c3.4-5.3,5.1-11.5,5.1-18.5C81,140.9,79.3,134.7,75.9,129.5z"/>
<g>
	<path d="M485.3,129.7c1.7-0.2,3.5-0.3,5.5-0.3c8.9,0,17.8,2.5,26.8,7.6l6.9-17c-4.4-2.8-9.6-4.9-15.4-6.3
		c-5.9-1.5-11.9-2.2-18.1-2.2c-3.6,0-7,0.2-10.2,0.7L485.3,129.7z"/>
	<path d="M495.6,192.7c-2.3,0.4-4.9,0.6-7.9,0.6c-5.7,0-11.4-0.9-17.1-2.8c-5.7-1.8-10.6-4.3-14.8-7.3l-7.6,16.8
		c4.3,3.3,10,6,17.2,8.1c7.1,2.1,14.5,3.1,22.1,3.1c2.8,0,5.5-0.2,8-0.4v-18.1H495.6z"/>
</g>
<g>
	<path d="M63.2,49.9c-2.2-2.2-5.7-2.2-7.9,0c-0.5,0.5-0.9,1.1-1.1,1.7H16c-0.3-0.6-0.6-1.2-1.1-1.7c-2.2-2.2-5.7-2.2-7.9,0l0,0
		c-2.2,2.2-2.2,5.7,0,7.9c1.1,1.1,2.5,1.6,4,1.6c1.4,0,2.9-0.5,4-1.6c0.5-0.5,0.9-1.1,1.1-1.7h38.3c0.3,0.6,0.6,1.2,1.1,1.7
		c1.1,1.1,2.5,1.6,4,1.6s2.9-0.6,4-1.6C65.4,55.7,65.4,52.1,63.2,49.9z"/>
	<path d="M229,166.2c-0.3-0.2-0.6-0.3-0.8-0.5v-39.8c0.9-0.4,1.7-1.1,2.3-1.9c1.7-2.6,1.1-6-1.5-7.8c-1.2-0.8-2.7-1.1-4.2-0.9
		c-1.5,0.3-2.7,1.1-3.6,2.4c-1.7,2.6-1.1,6,1.5,7.8c0.3,0.2,0.6,0.3,0.8,0.5v39.7c-0.9,0.4-1.7,1.1-2.3,1.9c-1.7,2.6-1.1,6,1.5,7.8
		c0.9,0.6,2,1,3.1,1c0.4,0,0.7,0,1.1-0.1c1.5-0.3,2.7-1.1,3.6-2.4C232.2,171.4,231.5,167.9,229,166.2z"/>
	<path d="M324.9,179.2c-0.3-1.5-1.1-2.7-2.4-3.6c-1.5-1-3.4-1.2-5.1-0.6l-25.9-32.4c1.5-2.5,0.8-5.8-1.6-7.5
		c-1.2-0.8-2.7-1.1-4.2-0.9c-1.5,0.3-2.7,1.1-3.6,2.4c-1.7,2.6-1.1,6,1.5,7.8c0.9,0.6,2,1,3.1,1c0.3,0,0.7,0,1-0.1l26.4,33
		c-0.4,1-0.5,2-0.3,3c0.3,1.5,1.1,2.7,2.4,3.6c1,0.7,2.1,1,3.1,1c1.8,0,3.6-0.9,4.6-2.5C324.9,182.1,325.2,180.6,324.9,179.2z"/>
	<path d="M234.6,82.5c-1.1-1-2.5-1.5-4.1-1.4c-1,0.1-2,0.4-2.8,1c-12.1-5.4-15.1-15.9-15.7-22.5c0.6-0.3,1.2-0.7,1.7-1.1
		c1.1-1.1,1.6-2.5,1.6-4s-0.6-2.9-1.6-4s-2.5-1.6-4-1.6s-2.9,0.6-4,1.6c-1.1,1.1-1.6,2.5-1.6,4s0.6,2.9,1.6,4
		c0.5,0.5,1.1,0.9,1.7,1.2c0.7,7.6,4.1,20,17.8,26.5c0,0.3-0.1,0.7,0,1c0.1,1.5,0.8,2.9,1.9,3.9c1,0.9,2.3,1.4,3.7,1.4
		c0.1,0,0.2,0,0.3,0c3.1-0.2,5.4-2.8,5.2-5.9C236.4,84.9,235.8,83.5,234.6,82.5z"/>
	<path d="M405.6,197.9c-0.3-0.2-0.6-0.3-0.8-0.5V170c0.9-0.4,1.7-1.1,2.3-1.9c0.8-1.2,1.1-2.7,0.9-4.2c-0.3-1.5-1.1-2.7-2.4-3.6
		c-2.6-1.7-6-1.1-7.8,1.5c-0.8,1.2-1.1,2.7-0.9,4.2c0.3,1.5,1.1,2.7,2.4,3.6c0.3,0.2,0.6,0.3,0.8,0.5v27.4c-0.9,0.4-1.7,1.1-2.3,1.9
		c-0.8,1.2-1.1,2.7-0.9,4.2c0.3,1.5,1.1,2.7,2.4,3.6c1,0.7,2.1,1,3.1,1c1.8,0,3.6-0.9,4.6-2.5c0.8-1.2,1.1-2.7,0.9-4.2
		C407.8,200,406.9,198.7,405.6,197.9z"/>
	<path d="M127.7,82.1c-2,0.1-3.6,1.2-4.5,2.8c-9.6-1.5-17.2-6.9-22.6-16.2c-2.2-3.8-3.7-7.7-4.6-10.8l0.1-0.1c2.2-2.2,2.2-5.7,0-7.9
		c-2.2-2.2-5.7-2.2-7.9,0s-2.2,5.7,0,7.9c1,1,2.2,1.5,3.5,1.6c3.2,10.1,11.4,27.2,31.1,30.1c0.8,2.2,2.8,3.7,5.3,3.7
		c0.1,0,0.2,0,0.3,0c3.1-0.2,5.4-2.8,5.2-5.9C133.4,84.2,130.8,81.9,127.7,82.1z"/>
	<path d="M139.9,194c-1.5,0.1-2.9,0.8-3.9,1.9c-0.3,0.3-0.5,0.7-0.8,1.1c-10.1-1.3-18-6.8-23.6-16.4c-2-3.5-3.4-7-4.4-9.9
		c2-2.2,2-5.6-0.2-7.7c-2.2-2.2-5.7-2.2-7.9,0s-2.2,5.7,0,7.9c1,1,2.4,1.6,3.9,1.6c3.5,10.4,12.1,26.7,31.9,29.1
		c0.8,2.1,2.8,3.6,5.2,3.6c0.1,0,0.2,0,0.3,0c1.5-0.1,2.9-0.8,3.9-1.9s1.5-2.6,1.4-4.1C145.7,196.2,143,193.9,139.9,194z"/>
	<path d="M388.2,84.9c-0.7-0.2-1.4-0.3-2-0.2L379,69.3c0.4-0.7,0.7-1.5,0.7-2.4c0-2.3-1.7-4.3-4-4.6l-24-51.2c0.3-0.5,0.6-1,0.8-1.5
		c0.5-1.5,0.3-3-0.4-4.4c-0.7-1.4-1.9-2.4-3.4-2.8c-1.5-0.5-3-0.3-4.4,0.4c-1.4,0.7-2.4,1.9-2.8,3.4c-1,3,0.7,6.3,3.8,7.2
		c0.6,0.2,1.2,0.3,1.7,0.3c0.3,0,0.5,0,0.8-0.1l23.6,50.5c-0.2,0.2-0.3,0.4-0.4,0.6h-26.8c-0.8-1.4-2.3-2.4-4-2.4
		c-2.6,0-4.7,2.1-4.7,4.7s2.1,4.7,4.7,4.7c1.7,0,3.2-1,4-2.4H371c0.8,1.4,2.3,2.3,4,2.4l7.1,15.2c-0.5,0.6-0.8,1.2-1.1,2
		c-0.5,1.5-0.3,3,0.4,4.4s1.9,2.4,3.4,2.8c0.6,0.2,1.2,0.3,1.7,0.3c0.9,0,1.8-0.2,2.7-0.7c1.4-0.7,2.4-1.9,2.8-3.4
		C392.9,89.1,391.2,85.9,388.2,84.9z"/>
	<path d="M447,82.4c-2.4,0-4.4,1.4-5.3,3.5h-18.2c-0.4-0.6-1-1.2-1.6-1.6V55.5c2-0.9,3.5-2.9,3.5-5.3c0-3.2-2.6-5.8-5.8-5.8
		s-5.8,2.6-5.8,5.8c0,2.4,1.4,4.4,3.5,5.3v28.8c-1.4,0.8-2.4,2.3-2.4,4c0,2.6,2.1,4.7,4.7,4.7c1.8,0,3.4-1,4.1-2.6h18
		c0.9,2,2.9,3.5,5.3,3.5c3.2,0,5.8-2.6,5.8-5.8C452.8,85,450.2,82.4,447,82.4z"/>
	<path d="M9.9,196.9v-18.6c1.4-0.8,2.4-2.3,2.4-4s-1-3.2-2.4-4v-45.2c2-0.9,3.5-2.9,3.5-5.3c0-3.2-2.6-5.8-5.8-5.8s-5.8,2.6-5.8,5.8
		c0,2.4,1.4,4.4,3.5,5.3v45.2c-1.4,0.8-2.4,2.3-2.4,4s1,3.2,2.4,4v18.6c-2,0.9-3.5,2.9-3.5,5.3c0,3.2,2.6,5.8,5.8,5.8
		s5.8-2.6,5.8-5.8C13.4,199.8,12,197.8,9.9,196.9z"/>
	<path d="M519,175.8c-5.3-7.5-20.8-12.2-28.1-14.2c-0.6-1.9-2.3-3.2-4.3-3.2c-1.3,0-2.4,0.5-3.3,1.4c-7-1.4-22.1-5.7-22.4-16.4
		c-0.2-5.8,2.7-10.7,8.5-14.8c1.2-0.8,2.3-1.5,3.4-2.1c0.9,0.6,2,0.9,3.1,0.9c1.4,0,2.9-0.5,4-1.6c2.2-2.2,2.2-5.7,0-7.9
		c-2.2-2.2-5.7-2.2-7.9,0c-1.3,1.3-1.8,3.1-1.6,4.7c-1.1,0.6-2.3,1.3-3.5,2.1c-7.2,4.9-10.9,11.4-10.6,18.8
		c0.4,13.9,17.8,19.1,25.9,20.8c0.6,1.8,2.3,3.2,4.3,3.2c1.3,0,2.4-0.5,3.3-1.4c8,2.1,21.3,6.6,25.5,12.4c2.2,3.1,2.4,7,0.5,10.8
		c-1.4,2.8-4.1,5.7-8.1,7.4c-0.1-0.1-0.1-0.2-0.2-0.3c-2.2-2.2-5.7-2.2-7.9,0l0,0c-2.2,2.2-2.2,5.7,0,7.9c1.1,1.1,2.5,1.6,4,1.6
		c1.4,0,2.9-0.5,4-1.6c0.9-0.9,1.4-2.1,1.6-3.2c4.7-1.9,8.6-5.3,10.9-9.8C522.6,186.1,522.3,180.3,519,175.8z"/>
</g>
</svg>
