<svg id="Layer_1" data-name="Layer 1" xmlns="http://www.w3.org/2000/svg" viewBox="0 0 1057.7 99.9"><title>focalPoints1</title><rect y="67.8" width="22.2" height="30.8"/><polygon points="22.1 19.4 72.7 19.4 72.7 1.5 0 1.5 0 40.3 22.1 40.3 22.1 19.4"/><rect x="747.9" y="67" width="22.2" height="30.8"/><polygon points="811.5 1.5 793.1 1.5 793.1 98 815.1 98 815.1 39.4 815.1 39.4 811.5 1.5"/><polygon points="859.1 1.7 881.6 1.7 881.6 98.2 862.9 98.2 861.6 96.7 859.4 60.8 859.1 1.7"/><path d="M364.3,316.5a27.86,27.86,0,0,1,10.9-10.9,32.41,32.41,0,0,1,16-3.9c9.6,0,17.7,3.8,24.2,11.3l14.3-13.2a45.84,45.84,0,0,0-17-12.7,56.59,56.59,0,0,0-22.6-4.4,55.57,55.57,0,0,0-26.8,6.4,48.28,48.28,0,0,0-18.7,17.7,49.21,49.21,0,0,0-6.8,23.8h22.6A33.31,33.31,0,0,1,364.3,316.5Z" transform="translate(-140.4 -282.7)"/><path d="M415.4,351.9a33.73,33.73,0,0,1-10.4,8.3,30.39,30.39,0,0,1-13.8,3.1,34.84,34.84,0,0,1-9.3-1.2l-4.4,20.1c3.9.8,8.1.1,12.4.1a54.9,54.9,0,0,0,5.8-.3,51.82,51.82,0,0,0,16.9-4.2A44.36,44.36,0,0,0,429.7,365Z" transform="translate(-140.4 -282.7)"/><polygon points="977.6 19.1 977.6 1 893.7 1 893.7 19.1 924.5 19.1 924.5 46.2 946.8 46.2 946.8 19.1 977.6 19.1"/><path d="M320,307.3a48.8,48.8,0,0,0-18.8-17.8,55.69,55.69,0,0,0-26.9-6.4,57.25,57.25,0,0,0-27,6.4,47.42,47.42,0,0,0-18.8,17.8,47.91,47.91,0,0,0-6.7,23.4h22.5a31.6,31.6,0,0,1,3.9-13.8A27.62,27.62,0,0,1,259,306a32.36,32.36,0,0,1,30.8,0,27.62,27.62,0,0,1,10.8,10.9,34.36,34.36,0,0,1,0,31.8,27.62,27.62,0,0,1-10.8,10.9,30.21,30.21,0,0,1-11.1,3.6l-4.4,19.2h.1a55.69,55.69,0,0,0,26.9-6.4A48.29,48.29,0,0,0,327,332.7,48.67,48.67,0,0,0,320,307.3Z" transform="translate(-140.4 -282.7)"/><path d="M864.3,307.5a48.8,48.8,0,0,0-18.8-17.8,55.69,55.69,0,0,0-26.9-6.4,57.25,57.25,0,0,0-27,6.4,47.42,47.42,0,0,0-18.8,17.8,47.91,47.91,0,0,0-6.7,23.4h22.5a31.6,31.6,0,0,1,3.9-13.8,27.62,27.62,0,0,1,10.8-10.9,32.36,32.36,0,0,1,30.8,0,27.62,27.62,0,0,1,10.8,10.9,34.36,34.36,0,0,1,0,31.8,27.62,27.62,0,0,1-10.8,10.9,30.21,30.21,0,0,1-11.1,3.6l-4.4,19.2h.1a55.69,55.69,0,0,0,26.9-6.4,48.29,48.29,0,0,0,25.7-43.3A50.17,50.17,0,0,0,864.3,307.5Z" transform="translate(-140.4 -282.7)"/><polygon points="332.7 60.6 328.5 60.6 343 25.4 332.9 1.7 289.9 98.2 312.8 98.2 321.3 77.5 332.7 77.5 332.7 60.6"/><rect x="454.9" y="80.7" width="24.1" height="18.2"/><rect x="408.2" y="2.3" width="22.3" height="38.8"/><path d="M749.5,300.8A33.35,33.35,0,0,0,735,288.7a54.41,54.41,0,0,0-22.3-4.3H693.3v18.2h18.2c6.7,0,11.8,1.4,15.3,4.3s5.2,7.1,5.2,12.5-1.7,9.4-5.2,12.3-8.6,4.3-15.3,4.3H693.3v18.2h19.4c8.5,0,16-1.4,22.3-4.2a32.16,32.16,0,0,0,14.5-12.1,33.59,33.59,0,0,0,5.1-18.5Q754.6,308.6,749.5,300.8Z" transform="translate(-140.4 -282.7)"/><path d="M1158.9,301a46.78,46.78,0,0,1,5.5-.3c8.9,0,17.8,2.5,26.8,7.6l6.9-17a50.83,50.83,0,0,0-15.4-6.3,72.94,72.94,0,0,0-18.1-2.2,66.27,66.27,0,0,0-10.2.7Z" transform="translate(-140.4 -282.7)"/><path d="M1169.2,364a46.2,46.2,0,0,1-7.9.6,53.72,53.72,0,0,1-17.1-2.8,52.43,52.43,0,0,1-14.8-7.3l-7.6,16.8c4.3,3.3,10,6,17.2,8.1a77.64,77.64,0,0,0,22.1,3.1c2.8,0,5.5-.2,8-.4V364Z" transform="translate(-140.4 -282.7)"/><path d="M203.6,334.1a5.55,5.55,0,0,0-7.9,0,4.52,4.52,0,0,0-1.1,1.7H156.4a6.19,6.19,0,0,0-1.1-1.7,5.55,5.55,0,0,0-7.9,0h0a5.55,5.55,0,0,0,4,9.5,5.67,5.67,0,0,0,4-1.6,4.52,4.52,0,0,0,1.1-1.7h38.3a6.19,6.19,0,0,0,1.1,1.7,5.51,5.51,0,0,0,4,1.6,6,6,0,0,0,4-1.6A5.85,5.85,0,0,0,203.6,334.1Z" transform="translate(-140.4 -282.7)"/><path d="M902.6,337.5a5.58,5.58,0,0,1-.8-.5V297.2a6,6,0,0,0,2.3-1.9,5.63,5.63,0,0,0-1.5-7.8,6.1,6.1,0,0,0-4.2-.9,5.65,5.65,0,0,0-2.1,10.2,5.58,5.58,0,0,1,.8.5V337a6,6,0,0,0-2.3,1.9,5.63,5.63,0,0,0,1.5,7.8,5.71,5.71,0,0,0,3.1,1,4.1,4.1,0,0,0,1.1-.1,5.59,5.59,0,0,0,2.1-10.1Z" transform="translate(-140.4 -282.7)"/><path d="M998.5,350.5a5.57,5.57,0,0,0-2.4-3.6,5.75,5.75,0,0,0-5.1-.6l-25.9-32.4a5.67,5.67,0,0,0-1.6-7.5,6.1,6.1,0,0,0-4.2-.9,5.65,5.65,0,0,0-2.1,10.2,5.71,5.71,0,0,0,3.1,1,3.4,3.4,0,0,0,1-.1l26.4,33a5.19,5.19,0,0,0-.3,3,5.57,5.57,0,0,0,2.4,3.6,5.42,5.42,0,0,0,7.7-1.5A5.06,5.06,0,0,0,998.5,350.5Z" transform="translate(-140.4 -282.7)"/><path d="M375,366.7a5.43,5.43,0,0,0-4.1-1.4,5.58,5.58,0,0,0-2.8,1c-12.1-5.4-15.1-15.9-15.7-22.5a9.91,9.91,0,0,0,1.7-1.1,5.51,5.51,0,0,0,1.6-4,6,6,0,0,0-1.6-4,5.35,5.35,0,0,0-4-1.6,6,6,0,0,0-4,1.6,5.51,5.51,0,0,0-1.6,4,6,6,0,0,0,1.6,4,6.57,6.57,0,0,0,1.7,1.2c.7,7.6,4.1,20,17.8,26.5a3.35,3.35,0,0,0,0,1,5.82,5.82,0,0,0,1.9,3.9,5.49,5.49,0,0,0,3.7,1.4h.3a5.52,5.52,0,0,0,5.2-5.9A4.74,4.74,0,0,0,375,366.7Z" transform="translate(-140.4 -282.7)"/><path d="M1079.2,369.2a5.58,5.58,0,0,1-.8-.5V341.3a6,6,0,0,0,2.3-1.9,6.1,6.1,0,0,0,.9-4.2,5.65,5.65,0,0,0-10.2-2.1,6.1,6.1,0,0,0-.9,4.2,5.57,5.57,0,0,0,2.4,3.6,5.58,5.58,0,0,1,.8.5v27.4a6,6,0,0,0-2.3,1.9,6.1,6.1,0,0,0-.9,4.2,5.57,5.57,0,0,0,2.4,3.6,5.42,5.42,0,0,0,7.7-1.5,6.1,6.1,0,0,0,.9-4.2A4.91,4.91,0,0,0,1079.2,369.2Z" transform="translate(-140.4 -282.7)"/><path d="M268.1,366.3a5.39,5.39,0,0,0-4.5,2.8c-9.6-1.5-17.2-6.9-22.6-16.2a49.74,49.74,0,0,1-4.6-10.8l.1-.1a5.59,5.59,0,1,0-7.9,0,5.41,5.41,0,0,0,3.5,1.6c3.2,10.1,11.4,27.2,31.1,30.1a5.53,5.53,0,0,0,5.3,3.7h.3a5.56,5.56,0,1,0-.7-11.1Z" transform="translate(-140.4 -282.7)"/><path d="M813.5,365.3a5.82,5.82,0,0,0-3.9,1.9,10.47,10.47,0,0,0-.8,1.1c-10.1-1.3-18-6.8-23.6-16.4a58.25,58.25,0,0,1-4.4-9.9,5.5,5.5,0,0,0-.2-7.7,5.59,5.59,0,1,0-4,9.5c3.5,10.4,12.1,26.7,31.9,29.1a5.55,5.55,0,0,0,5.2,3.6h.3a5.82,5.82,0,0,0,3.9-1.9,5.57,5.57,0,0,0,1.4-4.1A5.44,5.44,0,0,0,813.5,365.3Z" transform="translate(-140.4 -282.7)"/><path d="M528.6,369.1a4.71,4.71,0,0,0-2-.2l-7.2-15.4a4.81,4.81,0,0,0,.7-2.4,4.64,4.64,0,0,0-4-4.6l-24-51.2a10.93,10.93,0,0,0,.8-1.5,5.63,5.63,0,0,0-.4-4.4,5.29,5.29,0,0,0-3.4-2.8,5.63,5.63,0,0,0-4.4.4,5.29,5.29,0,0,0-2.8,3.4,5.66,5.66,0,0,0,3.8,7.2,5.55,5.55,0,0,0,1.7.3,2.2,2.2,0,0,0,.8-.1l23.6,50.5a2.09,2.09,0,0,0-.4.6H484.6a4.7,4.7,0,1,0,0,4.6h26.8a4.89,4.89,0,0,0,4,2.4l7.1,15.2a6.44,6.44,0,0,0-1.1,2,5.63,5.63,0,0,0,.4,4.4,5.29,5.29,0,0,0,3.4,2.8,5.55,5.55,0,0,0,1.7.3,5.44,5.44,0,0,0,2.7-.7,5.29,5.29,0,0,0,2.8-3.4A6,6,0,0,0,528.6,369.1Z" transform="translate(-140.4 -282.7)"/><path d="M587.4,366.6a5.7,5.7,0,0,0-5.3,3.5H563.9a6.09,6.09,0,0,0-1.6-1.6V339.7a5.79,5.79,0,1,0-8.1-5.3,5.7,5.7,0,0,0,3.5,5.3v28.8a4.64,4.64,0,0,0,2.3,8.7,4.41,4.41,0,0,0,4.1-2.6h18a5.79,5.79,0,0,0,11.1-2.3A5.78,5.78,0,0,0,587.4,366.6Z" transform="translate(-140.4 -282.7)"/><path d="M683.5,368.2V349.6a4.53,4.53,0,0,0,0-8V296.4a5.79,5.79,0,1,0-8.1-5.3,5.7,5.7,0,0,0,3.5,5.3v45.2a4.53,4.53,0,0,0,0,8v18.6a5.79,5.79,0,1,0,8.1,5.3A5.7,5.7,0,0,0,683.5,368.2Z" transform="translate(-140.4 -282.7)"/><path d="M1192.6,347.1c-5.3-7.5-20.8-12.2-28.1-14.2a4.53,4.53,0,0,0-7.6-1.8c-7-1.4-22.1-5.7-22.4-16.4-.2-5.8,2.7-10.7,8.5-14.8,1.2-.8,2.3-1.5,3.4-2.1a5.61,5.61,0,0,0,3.1.9,5.67,5.67,0,0,0,4-1.6,5.59,5.59,0,1,0-7.9-7.9,5.7,5.7,0,0,0-1.6,4.7c-1.1.6-2.3,1.3-3.5,2.1-7.2,4.9-10.9,11.4-10.6,18.8.4,13.9,17.8,19.1,25.9,20.8a4.63,4.63,0,0,0,4.3,3.2,4.53,4.53,0,0,0,3.3-1.4c8,2.1,21.3,6.6,25.5,12.4,2.2,3.1,2.4,7,.5,10.8a16,16,0,0,1-8.1,7.4c-.1-.1-.1-.2-.2-.3a5.55,5.55,0,0,0-7.9,0h0a5.55,5.55,0,0,0,4,9.5,5.67,5.67,0,0,0,4-1.6,6.09,6.09,0,0,0,1.6-3.2,20.91,20.91,0,0,0,10.9-9.8A15.11,15.11,0,0,0,1192.6,347.1Z" transform="translate(-140.4 -282.7)"/></svg>