<?xml version="1.0" encoding="utf-8"?>
<!-- Generator: Adobe Illustrator 23.0.1, SVG Export Plug-In . SVG Version: 6.00 Build 0)  -->
<svg version="1.1" id="Layer_1" xmlns="http://www.w3.org/2000/svg" xmlns:xlink="http://www.w3.org/1999/xlink" x="0px" y="0px"
	 viewBox="0 0 1366 768" xml:space="preserve">
<style type="text/css">
<!--		.st0{fill:#231F20;} -->
	.cls-1,.cls-2{fill:#231f20;}.cls-2{stroke:#be1e2d;stroke-miterlimit:10;}
</style>
<g>
	<rect x="140.4" y="350.5" width="22.2" height="30.8"/>
	<polygon points="162.5,302.1 213.1,302.1 213.1,284.2 140.4,284.2 140.4,323 162.5,323 	"/>
</g>
<rect x="888.3" y="349.7" width="22.2" height="30.8"/>
<g>
	<polygon points="951.9,284.2 933.5,284.2 933.5,380.7 955.5,380.7 955.5,322.1 955.5,322.1 951.9,284.2 	"/>
	<polygon points="999.5,284.4 1022,284.4 1022,380.9 1003.3,380.9 1002,379.4 999.8,343.5 	"/>
</g>
<g>
	<path d="M364.3,316.5c2.6-4.7,6.3-8.3,10.9-10.9c4.7-2.6,10-3.9,16-3.9c9.6,0,17.7,3.8,24.2,11.3l14.3-13.2
		c-4.6-5.5-10.2-9.7-17-12.7c-6.7-2.9-14.3-4.4-22.6-4.4c-9.9,0-18.8,2.1-26.8,6.4c-7.9,4.3-14.2,10.2-18.7,17.7
		c-4.2,7.1-6.5,15-6.8,23.8h22.6C360.7,325.5,362,320.7,364.3,316.5z"/>
	<path d="M415.4,351.9c-3.1,3.6-6.6,6.4-10.4,8.3c-4.2,2.1-8.8,3.1-13.8,3.1c-3.3,0-6.4-0.4-9.3-1.2l-4.4,20.1
		c3.9,0.8,8.1,0.1,12.4,0.1c2,0,3.9-0.1,5.8-0.3c6.1-0.5,11.7-1.9,16.9-4.2c6.8-2.9,12.5-7.2,17.1-12.8L415.4,351.9z"/>
</g>
<polygon points="1118,301.8 1118,283.7 1034.1,283.7 1034.1,301.8 1064.9,301.8 1064.9,328.9 1087.2,328.9 1087.2,301.8 "/>
<path d="M320,307.3c-4.6-7.5-10.8-13.5-18.8-17.8c-8-4.3-16.9-6.4-26.9-6.4c-10,0-19,2.2-27,6.4c-8,4.3-14.3,10.2-18.8,17.8
	c-4.2,7-6.4,14.8-6.7,23.4h22.5c0.3-5.1,1.6-9.7,3.9-13.8c2.6-4.7,6.2-8.3,10.8-10.9c4.6-2.6,9.7-3.9,15.4-3.9
	c5.7,0,10.8,1.3,15.4,3.9c4.6,2.6,8.2,6.2,10.8,10.9c2.6,4.7,3.9,10,3.9,15.9c0,5.9-1.3,11.3-3.9,15.9c-2.6,4.7-6.2,8.3-10.8,10.9
	c-3.4,1.9-7.1,3.1-11.1,3.6l-4.4,19.2c0,0,0.1,0,0.1,0c10,0,18.9-2.1,26.9-6.4c8-4.3,14.2-10.2,18.8-17.8c4.6-7.5,6.9-16,6.9-25.5
	C326.9,323.3,324.6,314.8,320,307.3z"/>
<path d="M864.3,307.5c-4.6-7.5-10.8-13.5-18.8-17.8c-8-4.3-16.9-6.4-26.9-6.4c-10,0-19,2.2-27,6.4c-8,4.3-14.3,10.2-18.8,17.8
	c-4.2,7-6.4,14.8-6.7,23.4h22.5c0.3-5.1,1.6-9.7,3.9-13.8c2.6-4.7,6.2-8.3,10.8-10.9c4.6-2.6,9.7-3.9,15.4-3.9
	c5.7,0,10.8,1.3,15.4,3.9c4.6,2.6,8.2,6.2,10.8,10.9c2.6,4.7,3.9,10,3.9,15.9c0,5.9-1.3,11.3-3.9,15.9c-2.6,4.7-6.2,8.3-10.8,10.9
	c-3.4,1.9-7.1,3.1-11.1,3.6l-4.4,19.2c0,0,0.1,0,0.1,0c10,0,18.9-2.1,26.9-6.4c8-4.3,14.2-10.2,18.8-17.8c4.6-7.5,6.9-16,6.9-25.5
	C871.1,323.6,868.9,315.1,864.3,307.5z"/>
<polygon class="st0" points="473.1,343.3 468.9,343.3 483.4,308.1 473.3,284.4 430.3,380.9 453.2,380.9 461.7,360.2 473.1,360.2 "/>
<g>
	<rect x="595.3" y="363.4" class="st0" width="24.1" height="18.2"/>
	<rect x="548.6" y="285" class="st0" width="22.3" height="38.8"/>
</g>
<path class="st0" d="M749.5,300.8c-3.4-5.2-8.3-9.3-14.5-12.1c-6.3-2.8-13.7-4.3-22.3-4.3h-19.4v18.2h18.2c6.7,0,11.8,1.4,15.3,4.3
	c3.5,2.9,5.2,7.1,5.2,12.5c0,5.3-1.7,9.4-5.2,12.3c-3.5,2.9-8.6,4.3-15.3,4.3h-18.2v18.2h19.4c8.5,0,16-1.4,22.3-4.2
	c6.3-2.8,11.1-6.8,14.5-12.1c3.4-5.3,5.1-11.5,5.1-18.5C754.6,312.2,752.9,306,749.5,300.8z"/>
<g>
	<path class="st0" d="M1158.9,301c1.7-0.2,3.5-0.3,5.5-0.3c8.9,0,17.8,2.5,26.8,7.6l6.9-17c-4.4-2.8-9.6-4.9-15.4-6.3
		c-5.9-1.5-11.9-2.2-18.1-2.2c-3.6,0-7,0.2-10.2,0.7L1158.9,301z"/>
	<path class="st0" d="M1169.2,364c-2.3,0.4-4.9,0.6-7.9,0.6c-5.7,0-11.4-0.9-17.1-2.8c-5.7-1.8-10.6-4.3-14.8-7.3l-7.6,16.8
		c4.3,3.3,10,6,17.2,8.1c7.1,2.1,14.5,3.1,22.1,3.1c2.8,0,5.5-0.2,8-0.4V364z"/>
</g>
<g>
	<path d="M203.6,334.1c-2.2-2.2-5.7-2.2-7.9,0c-0.5,0.5-0.9,1.1-1.1,1.7h-38.2c-0.3-0.6-0.6-1.2-1.1-1.7c-2.2-2.2-5.7-2.2-7.9,0v0
		c-2.2,2.2-2.2,5.7,0,7.9c1.1,1.1,2.5,1.6,4,1.6c1.4,0,2.9-0.5,4-1.6c0.5-0.5,0.9-1.1,1.1-1.7h38.3c0.3,0.6,0.6,1.2,1.1,1.7
		c1.1,1.1,2.5,1.6,4,1.6s2.9-0.6,4-1.6C205.8,339.9,205.8,336.3,203.6,334.1z"/>
	<path d="M902.6,337.5c-0.3-0.2-0.6-0.3-0.8-0.5v-39.8c0.9-0.4,1.7-1.1,2.3-1.9c1.7-2.6,1.1-6-1.5-7.8c-1.2-0.8-2.7-1.1-4.2-0.9
		c-1.5,0.3-2.7,1.1-3.6,2.4c-1.7,2.6-1.1,6,1.5,7.8c0.3,0.2,0.6,0.3,0.8,0.5V337c-0.9,0.4-1.7,1.1-2.3,1.9c-1.7,2.6-1.1,6,1.5,7.8
		c0.9,0.6,2,1,3.1,1c0.4,0,0.7,0,1.1-0.1c1.5-0.3,2.7-1.1,3.6-2.4C905.8,342.7,905.1,339.2,902.6,337.5z"/>
	<path d="M998.5,350.5c-0.3-1.5-1.1-2.7-2.4-3.6c-1.5-1-3.4-1.2-5.1-0.6l-25.9-32.4c1.5-2.5,0.8-5.8-1.6-7.5
		c-1.2-0.8-2.7-1.1-4.2-0.9c-1.5,0.3-2.7,1.1-3.6,2.4c-1.7,2.6-1.1,6,1.5,7.8c0.9,0.6,2,1,3.1,1c0.3,0,0.7,0,1-0.1l26.4,33
		c-0.4,1-0.5,2-0.3,3c0.3,1.5,1.1,2.7,2.4,3.6c1,0.7,2.1,1,3.1,1c1.8,0,3.6-0.9,4.6-2.5C998.5,353.4,998.8,351.9,998.5,350.5z"/>
	<path d="M375,366.7c-1.1-1-2.5-1.5-4.1-1.4c-1,0.1-2,0.4-2.8,1c-12.1-5.4-15.1-15.9-15.7-22.5c0.6-0.3,1.2-0.7,1.7-1.1
		c1.1-1.1,1.6-2.5,1.6-4c0-1.5-0.6-2.9-1.6-4s-2.5-1.6-4-1.6c-1.5,0-2.9,0.6-4,1.6c-1.1,1.1-1.6,2.5-1.6,4c0,1.5,0.6,2.9,1.6,4
		c0.5,0.5,1.1,0.9,1.7,1.2c0.7,7.6,4.1,20,17.8,26.5c0,0.3-0.1,0.7,0,1c0.1,1.5,0.8,2.9,1.9,3.9c1,0.9,2.3,1.4,3.7,1.4
		c0.1,0,0.2,0,0.3,0c3.1-0.2,5.4-2.8,5.2-5.9C376.8,369.1,376.2,367.7,375,366.7z"/>
	<path d="M1079.2,369.2c-0.3-0.2-0.6-0.3-0.8-0.5v-27.4c0.9-0.4,1.7-1.1,2.3-1.9c0.8-1.2,1.1-2.7,0.9-4.2c-0.3-1.5-1.1-2.7-2.4-3.6
		c-2.6-1.7-6-1.1-7.8,1.5c-0.8,1.2-1.1,2.7-0.9,4.2c0.3,1.5,1.1,2.7,2.4,3.6c0.3,0.2,0.6,0.3,0.8,0.5v27.4c-0.9,0.4-1.7,1.1-2.3,1.9
		c-0.8,1.2-1.1,2.7-0.9,4.2c0.3,1.5,1.1,2.7,2.4,3.6c1,0.7,2.1,1,3.1,1c1.8,0,3.6-0.9,4.6-2.5c0.8-1.2,1.1-2.7,0.9-4.2
		C1081.3,371.3,1080.5,370,1079.2,369.2z"/>
	<path d="M268.1,366.3c-2,0.1-3.6,1.2-4.5,2.8c-9.6-1.5-17.2-6.9-22.6-16.2c-2.2-3.8-3.7-7.7-4.6-10.8c0,0,0.1-0.1,0.1-0.1
		c2.2-2.2,2.2-5.7,0-7.9c-2.2-2.2-5.7-2.2-7.9,0c-2.2,2.2-2.2,5.7,0,7.9c1,1,2.2,1.5,3.5,1.6c3.2,10.1,11.4,27.2,31.1,30.1
		c0.8,2.2,2.8,3.7,5.3,3.7c0.1,0,0.2,0,0.3,0c3.1-0.2,5.4-2.8,5.2-5.9C273.8,368.4,271.2,366.1,268.1,366.3z"/>
	<path d="M813.5,365.3c-1.5,0.1-2.9,0.8-3.9,1.9c-0.3,0.3-0.5,0.7-0.8,1.1c-10.1-1.3-18-6.8-23.6-16.4c-2-3.5-3.4-7-4.4-9.9
		c2-2.2,2-5.6-0.2-7.7c-2.2-2.2-5.7-2.2-7.9,0c-2.2,2.2-2.2,5.7,0,7.9c1,1,2.4,1.6,3.9,1.6c3.5,10.4,12.1,26.7,31.9,29.1
		c0.8,2.1,2.8,3.6,5.2,3.6c0.1,0,0.2,0,0.3,0c1.5-0.1,2.9-0.8,3.9-1.9c1-1.1,1.5-2.6,1.4-4.1C819.3,367.5,816.6,365.2,813.5,365.3z"
		/>
	<path d="M528.6,369.1c-0.7-0.2-1.4-0.3-2-0.2l-7.2-15.4c0.4-0.7,0.7-1.5,0.7-2.4c0-2.3-1.7-4.3-4-4.6l-24-51.2
		c0.3-0.5,0.6-1,0.8-1.5c0.5-1.5,0.3-3-0.4-4.4c-0.7-1.4-1.9-2.4-3.4-2.8c-1.5-0.5-3-0.3-4.4,0.4c-1.4,0.7-2.4,1.9-2.8,3.4
		c-1,3,0.7,6.3,3.8,7.2c0.6,0.2,1.2,0.3,1.7,0.3c0.3,0,0.5,0,0.8-0.1l23.6,50.5c-0.2,0.2-0.3,0.4-0.4,0.6h-26.8
		c-0.8-1.4-2.3-2.4-4-2.4c-2.6,0-4.7,2.1-4.7,4.7c0,2.6,2.1,4.7,4.7,4.7c1.7,0,3.2-1,4-2.4h26.8c0.8,1.4,2.3,2.3,4,2.4l7.1,15.2
		c-0.5,0.6-0.8,1.2-1.1,2c-0.5,1.5-0.3,3,0.4,4.4c0.7,1.4,1.9,2.4,3.4,2.8c0.6,0.2,1.2,0.3,1.7,0.3c0.9,0,1.8-0.2,2.7-0.7
		c1.4-0.7,2.4-1.9,2.8-3.4C533.3,373.3,531.6,370.1,528.6,369.1z"/>
	<path d="M587.4,366.6c-2.4,0-4.4,1.4-5.3,3.5h-18.2c-0.4-0.6-1-1.2-1.6-1.6v-28.8c2-0.9,3.5-2.9,3.5-5.3c0-3.2-2.6-5.8-5.8-5.8
		s-5.8,2.6-5.8,5.8c0,2.4,1.4,4.4,3.5,5.3v28.8c-1.4,0.8-2.4,2.3-2.4,4c0,2.6,2.1,4.7,4.7,4.7c1.8,0,3.4-1,4.1-2.6h18
		c0.9,2,2.9,3.5,5.3,3.5c3.2,0,5.8-2.6,5.8-5.8C593.2,369.2,590.6,366.6,587.4,366.6z"/>
	<path d="M683.5,368.2v-18.6c1.4-0.8,2.4-2.3,2.4-4s-1-3.2-2.4-4v-45.2c2-0.9,3.5-2.9,3.5-5.3c0-3.2-2.6-5.8-5.8-5.8
		s-5.8,2.6-5.8,5.8c0,2.4,1.4,4.4,3.5,5.3v45.2c-1.4,0.8-2.4,2.3-2.4,4s1,3.2,2.4,4v18.6c-2,0.9-3.5,2.9-3.5,5.3
		c0,3.2,2.6,5.8,5.8,5.8s5.8-2.6,5.8-5.8C687,371.1,685.6,369.1,683.5,368.2z"/>
	<path d="M1192.6,347.1c-5.3-7.5-20.8-12.2-28.1-14.2c-0.6-1.9-2.3-3.2-4.3-3.2c-1.3,0-2.4,0.5-3.3,1.4c-7-1.4-22.1-5.7-22.4-16.4
		c-0.2-5.8,2.7-10.7,8.5-14.8c1.2-0.8,2.3-1.5,3.4-2.1c0.9,0.6,2,0.9,3.1,0.9c1.4,0,2.9-0.5,4-1.6c2.2-2.2,2.2-5.7,0-7.9
		c-2.2-2.2-5.7-2.2-7.9,0c-1.3,1.3-1.8,3.1-1.6,4.7c-1.1,0.6-2.3,1.3-3.5,2.1c-7.2,4.9-10.9,11.4-10.6,18.8
		c0.4,13.9,17.8,19.1,25.9,20.8c0.6,1.8,2.3,3.2,4.3,3.2c1.3,0,2.4-0.5,3.3-1.4c8,2.1,21.3,6.6,25.5,12.4c2.2,3.1,2.4,7,0.5,10.8
		c-1.4,2.8-4.1,5.7-8.1,7.4c-0.1-0.1-0.1-0.2-0.2-0.3c-2.2-2.2-5.7-2.2-7.9,0h0c-2.2,2.2-2.2,5.7,0,7.9c1.1,1.1,2.5,1.6,4,1.6
		c1.4,0,2.9-0.5,4-1.6c0.9-0.9,1.4-2.1,1.6-3.2c4.7-1.9,8.6-5.3,10.9-9.8C1196.2,357.4,1195.8,351.6,1192.6,347.1z"/>
</g>
</svg>
