<svg id="Layer_1" data-name="Layer 1" xmlns="http://www.w3.org/2000/svg" viewBox="0 0 1073.53 96.76"><defs><style>.cls-1{fill:#010101;}</style></defs><title>french_inline</title><path class="cls-1" d="M140.41,352.43a30.84,30.84,0,0,0-13.54-11.29q-8.79-4-20.72-4V354.1h0c6.24,0,9.83,1.35,13.08,4s4.88,6.57,4.88,11.62-1.63,8.78-4.88,11.48-8,4-14.24,4H88.05v16.94h18.1q11.92,0,20.72-3.91A30.28,30.28,0,0,0,140.41,387a33.9,33.9,0,0,0,0-34.58Z" transform="translate(-73.22 -335.62)"/><polygon class="cls-1" points="300.21 1.54 300.21 56.08 303.67 91.36 320.74 91.36 320.74 1.54 300.21 1.54"/><polygon class="cls-1" points="238.36 1.54 238.36 91.36 258.89 91.36 258.89 36.83 255.55 1.54 238.36 1.54"/><polygon class="cls-1" points="331.9 1.54 331.9 18.48 359.45 18.48 359.45 18.47 384.6 18.47 384.6 18.48 410.18 18.48 410.18 1.54 331.9 1.54"/><path class="cls-1" d="M176.88,386.24a36.87,36.87,0,0,1-.21-3.83,30,30,0,0,1,3.66-14.89,26.26,26.26,0,0,1,10.07-10.2,30,30,0,0,1,28.74,0,26.28,26.28,0,0,1,10.08,10.2,30,30,0,0,1,3.65,14.89,36.9,36.9,0,0,1-.2,3.83h21.09c.1-1.26.16-2.54.16-3.83a44.94,44.94,0,0,0-24-40.42,55.51,55.51,0,0,0-50.36,0A44.73,44.73,0,0,0,162,358.6a45.35,45.35,0,0,0-6.35,23.81c0,1.29.06,2.57.15,3.83Z" transform="translate(-73.22 -335.62)"/><path class="cls-1" d="M524.08,352.36c.74,0,1.51-.06,2.3-.06q12.45,0,24.9,7.06l6.41-15.78a49.57,49.57,0,0,0-14.37-5.9,69,69,0,0,0-16.81-2.06c-.82,0-1.63,0-2.43.05Z" transform="translate(-73.22 -335.62)"/><path class="cls-1" d="M556.86,386.44a27.84,27.84,0,0,0-11.23-7.7,146.31,146.31,0,0,0-16.81-4.88c-1.69-.37-3.27-.75-4.74-1.12v18.57q4.8,1.17,7.89,2.18a19.15,19.15,0,0,1,6.41,3.4,6.7,6.7,0,0,1,2.5,5.33q0,4.36-4.23,7t-13.09,2.63a51.58,51.58,0,0,1-15.91-2.56,47.87,47.87,0,0,1-13.73-6.8l-7.06,15.65q6,4.62,16,7.51a73.63,73.63,0,0,0,20.59,2.88q12.33,0,20.92-3.72t12.89-10.07a24.49,24.49,0,0,0,4.3-14.05Q561.54,391.7,556.86,386.44Z" transform="translate(-73.22 -335.62)"/><rect class="cls-1" x="196.27" y="31.27" width="20.79" height="60.09"/><rect class="cls-1" x="530.75" y="59.61" width="20.79" height="32.72"/><polygon class="cls-1" points="530.75 2.51 530.75 42.93 551.54 42.93 551.54 19.19 598.63 19.19 598.63 2.51 530.75 2.51"/><path class="cls-1" d="M700.68,386.88a34.3,34.3,0,0,1-.21-3.83,30,30,0,0,1,3.66-14.89A26.19,26.19,0,0,1,714.2,358a30,30,0,0,1,28.74,0A26.19,26.19,0,0,1,753,368.16a30,30,0,0,1,3.66,14.89,34.3,34.3,0,0,1-.21,3.83h21.1c.09-1.26.15-2.54.15-3.83a44.91,44.91,0,0,0-24-40.42,55.53,55.53,0,0,0-50.37,0,44.7,44.7,0,0,0-17.57,16.61,45.35,45.35,0,0,0-6.36,23.81c0,1.29.06,2.57.16,3.83Z" transform="translate(-73.22 -335.62)"/><path class="cls-1" d="M837.51,411.79a29.94,29.94,0,0,1-14.88-3.66,26,26,0,0,1-10.21-10.2A28.83,28.83,0,0,1,809,386.88H787.87a44.5,44.5,0,0,0,23.66,36.65,51.53,51.53,0,0,0,24.83,6,52.77,52.77,0,0,0,21.17-4.11,41.62,41.62,0,0,0,15.91-11.93l-13.35-12.32Q851,411.79,837.51,411.79Z" transform="translate(-73.22 -335.62)"/><polygon class="cls-1" points="844.24 55.6 857.28 24.11 856.77 22.91 847.39 3.06 807.6 92.33 828.9 92.33 836.86 73.09 836.86 73.09 844.24 55.6 844.24 55.6"/><path class="cls-1" d="M1035.59,336.7v49q0,12.33-5.08,18.1t-14.3,5.76v17.54q18.64-.17,29.1-10.54,10.61-10.53,10.6-30.09V336.7Z" transform="translate(-73.22 -335.62)"/><polygon class="cls-1" points="1073.53 1.37 1051.09 1.37 1030.82 30.48 1042.24 44.72 1073.53 1.37"/><polygon class="cls-1" points="984.91 91.14 1008.76 91.14 1030.05 59.98 1018.13 45.49 984.91 91.14"/><path class="cls-1" d="M245,390.66a4.41,4.41,0,0,0-3.24,7.42c-2.91,7.41-12.15,24-36.6,24h-.6c-24.79-.27-33.9-16.65-36.74-24a4.35,4.35,0,0,0,1.36-3.17,4.43,4.43,0,1,0-5.13,4.35c3.19,8.11,13.42,26.53,40.47,26.82h.63c26.51,0,37-18.41,40.3-26.65a4.42,4.42,0,0,0-.45-8.81Z" transform="translate(-73.22 -335.62)"/><path class="cls-1" d="M97.41,341.69a4.39,4.39,0,0,0-3.92,2.43H75.65v78.94a4.42,4.42,0,1,0,4,0V348.12H93.49a4.42,4.42,0,1,0,3.92-6.43Z" transform="translate(-73.22 -335.62)"/><path class="cls-1" d="M365.91,392.39a4.94,4.94,0,0,0-.87.08l-21.21-26.94a4.41,4.41,0,1,0-3.78,2.16c.13,0,.24,0,.36,0L361.9,395a4.42,4.42,0,1,0,4-2.57Z" transform="translate(-73.22 -335.62)"/><path class="cls-1" d="M446.27,423.06V366.85a4.42,4.42,0,1,0-4,0v56.21a4.42,4.42,0,1,0,4,0Z" transform="translate(-73.22 -335.62)"/><path class="cls-1" d="M279.89,337.27a4.43,4.43,0,1,0,4.42,4.42A4.42,4.42,0,0,0,279.89,337.27Z" transform="translate(-73.22 -335.62)"/><path class="cls-1" d="M506.33,349.14a20,20,0,0,1,5.08-2.94,4.43,4.43,0,1,0,0-4.11,28,28,0,0,0-2.62,1,22.49,22.49,0,0,0-10,8.23,20.61,20.61,0,0,0-3.26,11.29q0,7.78,4,12.42A24.62,24.62,0,0,0,509.4,382l1.57.59a4.42,4.42,0,1,0,1.31-3.79l-.18-.07a23.28,23.28,0,0,1-8.79-5.83q-3.57-3.83-3.57-10.23A16.62,16.62,0,0,1,506.33,349.14Z" transform="translate(-73.22 -335.62)"/><path class="cls-1" d="M662.88,382.47a4.41,4.41,0,0,0-4.15,2.92H618.25a4.43,4.43,0,1,0,0,3h40.48a4.42,4.42,0,1,0,4.15-5.92Z" transform="translate(-73.22 -335.62)"/><path class="cls-1" d="M768.74,391.3a4.41,4.41,0,0,0-3.26,7.39c-3,7.37-12.4,24.07-36.59,24.07h-.58c-24.8-.27-33.9-16.65-36.74-24a4.42,4.42,0,1,0-3.77,1.18c3.19,8.1,13.42,26.53,40.47,26.82h.63c26.51,0,37-18.41,40.3-26.65a4.42,4.42,0,0,0-.46-8.81Z" transform="translate(-73.22 -335.62)"/><path class="cls-1" d="M971.76,423.53h-.09l-37-80.53a4.42,4.42,0,1,0-3.75,1.42l25,54.39H927a4.42,4.42,0,1,0,0,4h30.7l10.39,22.61a4.42,4.42,0,1,0,3.63-1.9Z" transform="translate(-73.22 -335.62)"/><path class="cls-1" d="M867.89,345.59a4.75,4.75,0,0,0-3.18.06,37.4,37.4,0,0,0-9.71-5.33,48.18,48.18,0,0,0-16.94-2.95,46.8,46.8,0,0,0-23.15,5.77,42.21,42.21,0,0,0-16.26,15.94,43.1,43.1,0,0,0-5.1,13.88H794a4.74,4.74,0,1,0,2.83.06,2.8,2.8,0,0,0-.28-.06h1.39a39.52,39.52,0,0,1,19.3-26.37,41.8,41.8,0,0,1,21-5.33q13.86,0,23.73,7.18l-.06.12a4.75,4.75,0,1,0,6-3Z" transform="translate(-73.22 -335.62)"/><path class="cls-1" d="M1137.78,422.34a5.16,5.16,0,0,0-.79.08l-31.6-42.05h0l-2.43-3.22h0l-.91-1.21h0l-24.28-32.47a4.37,4.37,0,0,0,.55-2.09,4.43,4.43,0,1,0-4.43,4.42c.15,0,.29,0,.43,0l25.82,34.62,3.46,4.12,0,.05L1133.76,425a4.41,4.41,0,1,0,4-2.61Z" transform="translate(-73.22 -335.62)"/><path class="cls-1" d="M1007.4,419a4.42,4.42,0,0,0-3.19,1.36,25.17,25.17,0,0,1-11.46-7q-7.93-8.64-7.93-25.76V345.36a4.4,4.4,0,1,0-4.35-.33v42.69q0,18.79,9.27,28.51a29.75,29.75,0,0,0,13.31,8,4.42,4.42,0,1,0,4.35-5.21Z" transform="translate(-73.22 -335.62)"/></svg>