<svg id="Layer_1" data-name="Layer 1" xmlns="http://www.w3.org/2000/svg" viewBox="0 0 542.78 218.42"><defs><style>.cls-1{fill:#010101;}</style></defs><title>french_stacked</title><path class="cls-1" d="M405.76,293.23a30.91,30.91,0,0,0-13.54-11.29q-8.79-4-20.72-4V294.9h0c6.24,0,9.84,1.35,13.09,4s4.87,6.57,4.87,11.62-1.62,8.79-4.87,11.48-8,4-14.25,4H353.41V343H371.5q11.94,0,20.72-3.91a30.26,30.26,0,0,0,13.54-11.29,33.86,33.86,0,0,0,0-34.59Z" transform="translate(-338.58 -274.44)"/><polygon class="cls-1" points="300.21 3.52 300.21 58.06 303.67 93.35 320.74 93.35 320.74 3.52 300.21 3.52"/><polygon class="cls-1" points="238.36 3.52 238.36 93.35 258.89 93.35 258.89 38.81 255.55 3.52 238.36 3.52"/><polygon class="cls-1" points="331.9 3.52 331.9 20.46 359.45 20.46 359.45 20.46 384.6 20.46 384.6 20.46 410.18 20.46 410.18 3.52 331.9 3.52"/><path class="cls-1" d="M454.08,345.24a35.49,35.49,0,0,1-2.86-2.56,30,30,0,0,1-7.93-13.11,26.18,26.18,0,0,1-.1-14.34,30.05,30.05,0,0,1,20.33-20.32,26.27,26.27,0,0,1,14.34.09A30,30,0,0,1,491,302.94a37.62,37.62,0,0,1,2.56,2.85l14.92-14.91c-.83-1-1.69-1.91-2.6-2.82a44.94,44.94,0,0,0-45.55-11.62,55.6,55.6,0,0,0-35.62,35.62,44.91,44.91,0,0,0-.68,24.18,45.41,45.41,0,0,0,12.34,21.32c.92.92,1.87,1.77,2.82,2.6Z" transform="translate(-338.58 -274.44)"/><path class="cls-1" d="M789.44,293.16c.74,0,1.5-.05,2.3-.05q12.43,0,24.89,7.05l6.42-15.78a49.68,49.68,0,0,0-14.37-5.9,69,69,0,0,0-16.81-2.05c-.83,0-1.63,0-2.43,0Z" transform="translate(-338.58 -274.44)"/><path class="cls-1" d="M822.21,327.24a27.83,27.83,0,0,0-11.22-7.7,149,149,0,0,0-16.81-4.88c-1.7-.37-3.27-.74-4.74-1.12v18.58c3.19.78,5.82,1.5,7.88,2.18a18.93,18.93,0,0,1,6.42,3.4,6.69,6.69,0,0,1,2.5,5.32q0,4.37-4.24,7t-13.09,2.63A51.64,51.64,0,0,1,773,350.08a48,48,0,0,1-13.73-6.8l-7,15.65q6,4.62,16,7.51a73.65,73.65,0,0,0,20.6,2.89q12.32,0,20.91-3.72t12.9-10.08a24.56,24.56,0,0,0,4.3-14Q826.9,332.51,822.21,327.24Z" transform="translate(-338.58 -274.44)"/><rect class="cls-1" x="196.27" y="33.26" width="20.79" height="60.09"/><path class="cls-1" d="M505.34,300.24a4.43,4.43,0,0,0,0,6.25,4.38,4.38,0,0,0,3,1.28c3.18,7.3,8.4,25.59-8.89,42.88l-.42.42c-17.73,17.34-35.75,12.19-42.95,9a4.43,4.43,0,1,0-1.84,3.49c8,3.48,28.25,9.27,47.59-9.64l.45-.45c18.74-18.74,13.11-39.14,9.65-47.34a4.41,4.41,0,0,0-6.55-5.9Z" transform="translate(-338.58 -274.44)"/><path class="cls-1" d="M362.77,282.5a4.41,4.41,0,0,0-3.93,2.42H341v78.94a4.42,4.42,0,1,0,4,0V288.92h13.84a4.42,4.42,0,1,0,3.93-6.42Z" transform="translate(-338.58 -274.44)"/><path class="cls-1" d="M631.26,333.19a4.14,4.14,0,0,0-.87.09l-21.2-26.95a4.35,4.35,0,0,0,.64-2.27,4.43,4.43,0,1,0-4.42,4.43c.12,0,.23,0,.35,0l21.49,27.31a4.42,4.42,0,1,0,4-2.57Z" transform="translate(-338.58 -274.44)"/><path class="cls-1" d="M711.62,363.86v-56.2a4.42,4.42,0,1,0-4,0v56.2a4.43,4.43,0,1,0,4,0Z" transform="translate(-338.58 -274.44)"/><path class="cls-1" d="M545.24,278.07a4.43,4.43,0,1,0,4.42,4.43A4.42,4.42,0,0,0,545.24,278.07Z" transform="translate(-338.58 -274.44)"/><path class="cls-1" d="M771.68,289.94a19.9,19.9,0,0,1,5.09-2.94,4.42,4.42,0,1,0,.05-4.11,27.15,27.15,0,0,0-2.63,1,22.46,22.46,0,0,0-10,8.22A20.7,20.7,0,0,0,761,303.43q0,7.79,4,12.43a24.63,24.63,0,0,0,9.79,6.9l1.56.59a4.42,4.42,0,1,0,1.31-3.79l-.18-.06a23.3,23.3,0,0,1-8.78-5.84q-3.58-3.82-3.58-10.23A16.65,16.65,0,0,1,771.68,289.94Z" transform="translate(-338.58 -274.44)"/><rect class="cls-1" y="181.27" width="20.79" height="32.72"/><polygon class="cls-1" points="0 124.17 0 164.59 20.79 164.59 20.79 140.85 67.88 140.85 67.88 124.17 0 124.17"/><path class="cls-1" d="M435.28,447.36a34.35,34.35,0,0,1-.21-3.84,29.94,29.94,0,0,1,3.66-14.88,26.19,26.19,0,0,1,10.07-10.2,30,30,0,0,1,28.74,0,26.28,26.28,0,0,1,10.08,10.2,30,30,0,0,1,3.65,14.88,34.35,34.35,0,0,1-.21,3.84h21.1c.1-1.26.16-2.54.16-3.84a45,45,0,0,0-24-40.42,55.59,55.59,0,0,0-50.36,0,44.76,44.76,0,0,0-17.58,16.62,45.31,45.31,0,0,0-6.35,23.8c0,1.3.06,2.58.15,3.84Z" transform="translate(-338.58 -274.44)"/><path class="cls-1" d="M572.11,472.27a29.94,29.94,0,0,1-14.88-3.66,26,26,0,0,1-10.2-10.2,28.67,28.67,0,0,1-3.45-11.05H522.47A44.5,44.5,0,0,0,546.13,484,51.56,51.56,0,0,0,571,490a52.77,52.77,0,0,0,21.17-4.11A41.72,41.72,0,0,0,608,473.94L594.7,461.62Q585.58,472.27,572.11,472.27Z" transform="translate(-338.58 -274.44)"/><polygon class="cls-1" points="313.48 177.26 326.53 145.77 326.02 144.58 316.64 124.72 276.85 214 298.15 214 306.11 194.75 306.11 194.75 313.48 177.26 313.48 177.26"/><path class="cls-1" d="M770.19,397.18v49q0,12.33-5.07,18.1t-14.31,5.76v17.53q18.65-.15,29.1-10.53,10.61-10.53,10.61-30.1V397.18Z" transform="translate(-338.58 -274.44)"/><polygon class="cls-1" points="542.78 123.03 520.34 123.03 500.07 152.15 511.49 166.38 542.78 123.03"/><polygon class="cls-1" points="454.16 212.81 478.01 212.81 499.3 181.64 487.38 167.15 454.16 212.81"/><path class="cls-1" d="M397.48,443a4.42,4.42,0,0,0-4.15,2.92H352.85a4.43,4.43,0,1,0,0,3h40.48a4.42,4.42,0,1,0,4.15-5.92Z" transform="translate(-338.58 -274.44)"/><path class="cls-1" d="M503.35,451.78a4.41,4.41,0,0,0-3.27,7.39c-3,7.37-12.39,24.06-36.59,24.06h-.58c-24.79-.27-33.9-16.65-36.74-24a4.38,4.38,0,0,0,1.36-3.18,4.43,4.43,0,1,0-5.13,4.36c3.19,8.1,13.42,26.53,40.47,26.82h.63c26.51,0,36.95-18.4,40.3-26.65a4.41,4.41,0,0,0-.45-8.8Z" transform="translate(-338.58 -274.44)"/><path class="cls-1" d="M706.36,484h-.09l-37-80.54a4.37,4.37,0,0,0,1.15-3,4.42,4.42,0,1,0-4.9,4.38l25,54.39H661.65a4.42,4.42,0,1,0,0,4h30.69l10.4,22.61a4.41,4.41,0,1,0,3.62-1.9Z" transform="translate(-338.58 -274.44)"/><path class="cls-1" d="M602.49,406.07a4.75,4.75,0,0,0-3.18.06,37.5,37.5,0,0,0-9.7-5.33,48.05,48.05,0,0,0-17-2.95,46.7,46.7,0,0,0-23.15,5.77,42.19,42.19,0,0,0-16.25,15.94,42.8,42.8,0,0,0-5.11,13.88h.45a4.74,4.74,0,1,0,2.82.06,2.8,2.8,0,0,0-.28-.06h1.39a39.47,39.47,0,0,1,19.3-26.37,41.83,41.83,0,0,1,21-5.33q13.88,0,23.73,7.18l-.06.12a4.75,4.75,0,1,0,6-3Z" transform="translate(-338.58 -274.44)"/><path class="cls-1" d="M872.38,482.82a4,4,0,0,0-.78.08l-31.6-42h0l-2.44-3.22h0l-.91-1.22h0l-24.28-32.47a4.39,4.39,0,0,0-3.87-6.52,4.43,4.43,0,1,0,0,8.85c.14,0,.28,0,.43,0l25.81,34.61,3.46,4.13,0,0,30.21,40.41a4.37,4.37,0,0,0-.4,1.82,4.43,4.43,0,1,0,4.42-4.43Z" transform="translate(-338.58 -274.44)"/><path class="cls-1" d="M742,479.5a4.38,4.38,0,0,0-3.18,1.36,25.26,25.26,0,0,1-11.47-7q-7.94-8.64-7.93-25.76V405.84a4.41,4.41,0,1,0-4.34-.34v42.7q0,18.8,9.27,28.51a29.82,29.82,0,0,0,13.31,8A4.42,4.42,0,1,0,742,479.5Z" transform="translate(-338.58 -274.44)"/></svg>