<svg id="Layer_1" data-name="Layer 1" xmlns="http://www.w3.org/2000/svg" viewBox="0 0 619.72 178.16"><defs><style>.cls-1,.cls-2{fill:#231f20;}.cls-2{stroke:#be1e2d;stroke-miterlimit:10;}</style></defs><title>intersections_2</title><path class="cls-1" d="M670.66,335.6" transform="translate(-366.41 -58.3)"/><path class="cls-1" d="M732.51,194.21v1.71c0-.58,0-1.14,0-1.71Z" transform="translate(-366.41 -58.3)"/><path class="cls-1" d="M434.27,61.89" transform="translate(-366.41 -58.3)"/><path class="cls-2" d="M391.37,162.45" transform="translate(-366.41 -58.3)"/><path class="cls-2" d="M949.12,162.45" transform="translate(-366.41 -58.3)"/><path class="cls-1" d="M812.68,175.15a39.51,39.51,0,0,0-15.34-14.5,48.53,48.53,0,0,0-44,0,38.86,38.86,0,0,0-20.83,33.56h18.36a25.62,25.62,0,0,1,3.14-11.28,23,23,0,0,1,8.79-8.9,26.24,26.24,0,0,1,25.08,0,23,23,0,0,1,8.8,8.9,28,28,0,0,1,0,26,22.82,22.82,0,0,1-8.8,8.9,24,24,0,0,1-9,3l-3.61,15.66h.1a45.51,45.51,0,0,0,22-5.26,40.54,40.54,0,0,0,15.34-56Z" transform="translate(-366.41 -58.3)"/><polygon class="cls-1" points="118.33 0.44 118.33 48.03 120.15 77.36 121.35 78.82 136.24 78.82 136.24 0.44 118.33 0.44"/><polygon class="cls-1" points="79.36 0.44 64.36 0.44 64.36 78.82 82.27 78.82 82.27 31.23 82.35 31.33 79.39 0.47 79.36 0.44"/><rect class="cls-1" x="325.51" y="151.54" width="18.14" height="25.11"/><polygon class="cls-1" points="482.95 98.26 467.94 98.26 467.94 176.65 485.86 176.65 485.86 129.06 485.89 129.09 482.99 98.31 482.95 98.26"/><polygon class="cls-1" points="521.91 98.26 539.83 98.26 539.83 176.65 524.94 176.65 523.96 175.45 522.18 146.29 521.91 98.26"/><rect class="cls-1" x="22.04" y="53.71" width="18.14" height="25.11"/><polygon class="cls-1" points="219.97 15.31 219.97 0.49 151.5 0.49 151.5 15.31 176.65 15.31 176.65 37.42 194.83 37.42 194.83 15.31 219.97 15.31"/><polygon class="cls-1" points="252.75 14.59 294.06 14.59 294.06 0 234.68 0 234.68 31.66 252.75 31.66 252.75 14.59"/><polygon class="cls-1" points="252.75 63.99 252.75 45.8 234.68 45.8 234.68 78.58 295.52 78.58 295.52 63.99 252.75 63.99"/><path class="cls-1" d="M746.16,72a27,27,0,0,0-11.84-9.87,43.67,43.67,0,0,0-18.13-3.48h-34v78.58h18.19V73.45h14.82q8.19,0,12.46,3.54t4.26,10.16q0,6.51-4.26,10.1a12.51,12.51,0,0,1-2.31,1.53l9.21,13a25.52,25.52,0,0,0,15.77-24.62A27.23,27.23,0,0,0,746.16,72Z" transform="translate(-366.41 -58.3)"/><polygon class="cls-1" points="101.3 112.48 142.61 112.48 142.61 97.89 83.23 97.89 83.23 129.55 101.3 129.55 101.3 112.48"/><polygon class="cls-1" points="101.3 161.88 101.3 143.69 83.23 143.69 83.23 176.47 144.07 176.47 144.07 161.88 101.3 161.88"/><path class="cls-1" d="M546.75,182.73a22.82,22.82,0,0,1,8.93-8.93,26.28,26.28,0,0,1,13-3.2,25.11,25.11,0,0,1,19.76,9.21L600.13,169a37,37,0,0,0-13.86-10.33,45.9,45.9,0,0,0-18.47-3.59A45.35,45.35,0,0,0,546,160.33a39,39,0,0,0-15.27,14.48,39.54,39.54,0,0,0-5.51,19.44H543.6A25.75,25.75,0,0,1,546.75,182.73Z" transform="translate(-366.41 -58.3)"/><path class="cls-1" d="M588.46,211.58a27,27,0,0,1-8.5,6.77,25,25,0,0,1-11.26,2.54,28.29,28.29,0,0,1-7.55-1l-3.56,15.45a49.41,49.41,0,0,0,10.1,1c1.61,0,3.18-.08,4.71-.21a44.08,44.08,0,0,0,13.81-3.39,36.26,36.26,0,0,0,13.92-10.44Z" transform="translate(-366.41 -58.3)"/><polygon class="cls-1" points="310.25 112.98 310.25 98.16 241.78 98.16 241.78 112.98 266.92 112.98 266.92 135.1 285.11 135.1 285.11 112.98 310.25 112.98"/><path class="cls-1" d="M422.76,175.82,428.37,162a43.61,43.61,0,0,0-12.57-5.16,60.28,60.28,0,0,0-14.71-1.8c-1.63,0-3.2.07-4.72.18l5.26,14.44A44.12,44.12,0,0,1,422.76,175.82Z" transform="translate(-366.41 -58.3)"/><path class="cls-1" d="M427.28,225.2a25.84,25.84,0,0,1-10.58,7.87q-7.53,3.26-18.3,3.26a64.1,64.1,0,0,1-18-2.53,42,42,0,0,1-14-6.57l6.17-13.69a42,42,0,0,0,12,6,45,45,0,0,0,13.92,2.24q7.74,0,11.45-2.3a7,7,0,0,0,3.71-6.12Z" transform="translate(-366.41 -58.3)"/><path class="cls-1" d="M980.51,175.82,986.12,162a43.61,43.61,0,0,0-12.57-5.16,60.28,60.28,0,0,0-14.71-1.8c-1.63,0-3.2.07-4.72.18l5.26,14.44A44.08,44.08,0,0,1,980.51,175.82Z" transform="translate(-366.41 -58.3)"/><path class="cls-1" d="M985,225.2a25.88,25.88,0,0,1-10.59,7.87q-7.53,3.26-18.3,3.26a64.1,64.1,0,0,1-18-2.53,42,42,0,0,1-14-6.57l6.17-13.69a42,42,0,0,0,12,6,45,45,0,0,0,13.92,2.24q7.75,0,11.45-2.3a7,7,0,0,0,3.71-6.12Z" transform="translate(-366.41 -58.3)"/><path class="cls-1" d="M482.66,112.13a3.16,3.16,0,0,0-3.07-.26L454,79.81a1.27,1.27,0,0,0,.1-.12,3.19,3.19,0,1,0-1.32,1.1l25.62,32.06a1.27,1.27,0,0,0-.1.12,3.16,3.16,0,1,0,4.39-.84Z" transform="translate(-366.41 -58.3)"/><path class="cls-1" d="M702.76,202a3.23,3.23,0,0,0-1-.44V163.13a3.15,3.15,0,1,0-2.56-.43,3.2,3.2,0,0,0,1,.43v38.41a3.15,3.15,0,1,0,2.56.44Z" transform="translate(-366.41 -58.3)"/><path class="cls-1" d="M886.17,209.86a3.13,3.13,0,0,0-3.07-.25l-25.61-32.06.1-.12a3.18,3.18,0,1,0-1.32,1.1l25.61,32.05s-.07.08-.1.13a3.16,3.16,0,1,0,4.39-.85Z" transform="translate(-366.41 -58.3)"/><path class="cls-1" d="M399.29,105.4a3,3,0,0,0-1-.44V64.82a3.12,3.12,0,0,0,1.83-1.27,3.16,3.16,0,1,0-4.39.84,3,3,0,0,0,1,.43V105a3.13,3.13,0,0,0-1.84,1.28,3.16,3.16,0,1,0,4.39-.84Z" transform="translate(-366.41 -58.3)"/><path class="cls-1" d="M553.92,131.59a3.18,3.18,0,0,0-1-.44V102.87a3.11,3.11,0,0,0,1.84-1.27,3.16,3.16,0,1,0-4.39.84,3.2,3.2,0,0,0,1,.43v28.28a3.15,3.15,0,1,0,2.56.44Z" transform="translate(-366.41 -58.3)"/><path class="cls-1" d="M654.51,95.38a3.13,3.13,0,0,0-5.28,1.46H613a3.16,3.16,0,1,0-5.29,3,3.15,3.15,0,0,0,4.47,0A3.11,3.11,0,0,0,613,98.4h36.23a3,3,0,0,0,.81,1.45,3.16,3.16,0,0,0,4.47-4.47Z" transform="translate(-366.41 -58.3)"/><path class="cls-1" d="M741.37,131.44a3.1,3.1,0,0,0-2.63-.41l-11.86-22.39a2.27,2.27,0,0,0,.48-1.39,2.3,2.3,0,0,0-4.46-.79H708.4a3.17,3.17,0,1,0,0,1.57h14.5a2.31,2.31,0,0,0,2.16,1.52,2.07,2.07,0,0,0,.5-.06l11.83,22.31a2.73,2.73,0,0,0-.41.48,3.16,3.16,0,1,0,4.39-.84Z" transform="translate(-366.41 -58.3)"/><path class="cls-1" d="M503.06,193.28a3.15,3.15,0,0,0-4.47,0,3.09,3.09,0,0,0-.81,1.45H461.55a3.09,3.09,0,0,0-.81-1.45,3.21,3.21,0,1,0,.81,3h36.23a3.15,3.15,0,1,0,5.28-3Z" transform="translate(-366.41 -58.3)"/><path class="cls-1" d="M554.17,224a3.15,3.15,0,0,0-2.35,1.29c-14.73-5.07-16-18.15-16-23.25a3.08,3.08,0,0,0,1.59-.86,3.16,3.16,0,1,0-4.47,0,3.11,3.11,0,0,0,1.35.79c0,5.42,1.48,19.39,16.89,24.77a3,3,0,0,0,0,.6,3.16,3.16,0,1,0,3-3.34Z" transform="translate(-366.41 -58.3)"/><path class="cls-1" d="M644.2,229.26a3.26,3.26,0,0,0-1-.43V200.55a3.2,3.2,0,0,0,1.84-1.28,3.16,3.16,0,1,0-4.39.84,3.23,3.23,0,0,0,1,.44v28.28a3.12,3.12,0,0,0-1.83,1.27,3.16,3.16,0,1,0,4.39-.84Z" transform="translate(-366.41 -58.3)"/><path class="cls-1" d="M427,212a3.13,3.13,0,0,0-2.48-.9c-3.6-10.63-18.47-14.48-24.11-15.57a2.29,2.29,0,0,0-4.15-.9c-5.37-1-19.83-4.57-20.14-14.61-.27-9.06,8.11-13.86,12.64-15.79a3.19,3.19,0,1,0-.53-1.46c-4.84,2-14,7.27-13.67,17.29.35,11.25,15.52,15.06,21.31,16.1a2.29,2.29,0,0,0,4.27.92c5.4,1.08,19.6,4.8,22.9,14.51a4,4,0,0,0-.51.41,3.16,3.16,0,1,0,4.47,0Z" transform="translate(-366.41 -58.3)"/><path class="cls-1" d="M984.76,212a3.13,3.13,0,0,0-2.48-.9c-3.59-10.63-18.46-14.48-24.1-15.57a2.3,2.3,0,0,0-4.16-.9c-5.37-1-19.83-4.57-20.14-14.61-.27-9.06,8.11-13.86,12.64-15.79a3.19,3.19,0,1,0-.53-1.46c-4.84,2-14,7.27-13.67,17.29.35,11.25,15.52,15.06,21.31,16.1a2.29,2.29,0,0,0,4.27.92c5.4,1.08,19.6,4.8,22.9,14.51a4,4,0,0,0-.51.41,3.16,3.16,0,1,0,4.47,0Z" transform="translate(-366.41 -58.3)"/><path class="cls-1" d="M772.3,224.68a3.17,3.17,0,0,0-2.85,2.33c-9.61-.54-17.08-5.3-22.22-14.16a44.73,44.73,0,0,1-4.57-11.63,3.09,3.09,0,0,0,.88-.61,3.16,3.16,0,1,0-4.47,0,3.13,3.13,0,0,0,2.07.91c1.81,7.42,8.31,25.92,28.28,27a3.15,3.15,0,1,0,2.88-3.87Z" transform="translate(-366.41 -58.3)"/></svg>